<svg id="screenshot-5ba7bff4-fbe5-8044-8003-186e58f19917" viewBox="0 0 132.955 134" style="-webkit-print-color-adjust: exact;" fill="none" version="1.1"><g id="shape-5ba7bff4-fbe5-8044-8003-186e58f19917" version="1.2" rx="0" ry="0" style="fill: rgb(0, 0, 0);"><g id="shape-5ba7bff4-fbe5-8044-8003-186e58f1991b"><g class="fills" id="fills-5ba7bff4-fbe5-8044-8003-186e58f1991b"><path rx="0" ry="0" d="M130.941,66.977C130.941,102.863,102.076,131.954,66.470,131.954C49.372,131.954,32.973,125.108,20.883,112.923C8.792,100.737,2.000,84.210,2.000,66.977C2.000,31.091,30.864,2.000,66.470,2.000C102.076,2.000,130.941,31.091,130.941,66.977ZZM57.373,86.272L52.247,88.659C51.873,88.836,51.568,88.751,51.331,88.405C46.792,81.939,40.731,77.599,33.148,75.385C32.728,75.269,32.534,75.431,32.564,75.869C33.182,83.419,36.970,88.482,43.927,91.058C44.076,91.110,44.172,91.257,44.158,91.415C44.144,91.573,44.026,91.702,43.870,91.727C34.929,93.434,25.901,93.980,16.784,93.365C16.357,93.334,16.155,93.534,16.178,93.964L16.292,95.787C16.329,96.407,16.861,96.881,17.482,96.848L35.494,95.740C36.229,95.697,36.876,96.228,36.981,96.963C38.217,105.544,46.697,113.755,55.840,109.603C56.206,109.434,56.332,109.161,56.217,108.784C53.986,100.942,48.779,97.701,41.398,94.622C40.979,94.445,40.990,94.299,41.433,94.184L51.892,91.473C52.005,91.443,52.127,91.461,52.228,91.524C52.329,91.587,52.402,91.689,52.430,91.808C54.432,100.377,62.808,109.061,72.272,103.975C74.049,103.022,74.133,101.934,72.524,100.711C67.855,97.159,62.076,90.205,55.897,90.504C55.647,90.546,55.412,90.375,55.371,90.124C55.330,89.872,55.499,89.635,55.748,89.593C59.303,88.563,62.553,86.952,65.498,84.761C65.781,84.549,66.155,84.508,66.478,84.653C66.802,84.799,67.026,85.108,67.065,85.465C68.004,94.218,80.522,96.594,87.251,95.544C87.608,95.487,87.907,95.242,88.035,94.901C88.163,94.560,88.099,94.176,87.869,93.895C82.651,87.621,79.035,83.804,70.464,83.089C70.298,83.075,70.157,82.959,70.111,82.797C70.066,82.636,70.124,82.462,70.258,82.362L78.897,75.858C79.060,75.736,79.267,75.693,79.462,75.739C79.657,75.786,79.819,75.919,79.904,76.100C84.356,85.338,97.161,90.239,103.660,79.052C103.927,78.591,103.794,78.345,103.260,78.314C98.168,78.037,95.272,78.787,90.913,75.742C88.384,73.978,86.679,73.228,84.047,72.571C83.819,72.518,83.648,72.328,83.617,72.094C83.586,71.860,83.703,71.632,83.909,71.521C85.962,70.352,87.590,68.738,88.796,66.677C89.000,66.331,89.339,66.086,89.730,66.003C90.122,65.919,90.530,66.005,90.855,66.239C98.374,71.660,106.258,73.493,114.028,67.288C114.247,67.115,114.372,66.847,114.366,66.564C114.359,66.281,114.221,66.015,113.993,65.847C107.181,60.857,100.052,60.415,92.606,64.521C92.306,64.682,91.936,64.619,91.706,64.365C91.477,64.112,91.447,63.735,91.634,63.448C93.258,61.026,94.368,58.400,94.964,55.571C95.033,55.238,95.246,54.954,95.545,54.795C95.844,54.637,96.197,54.621,96.508,54.752C103.420,57.658,110.641,58.224,115.733,51.765C115.969,51.464,116.039,51.063,115.919,50.698C115.799,50.333,115.506,50.054,115.138,49.954C110.240,48.647,105.342,48.524,100.445,49.585C100.079,49.662,99.751,49.824,99.461,50.070L96.852,52.307C96.669,52.460,96.417,52.496,96.200,52.401C95.982,52.306,95.836,52.096,95.822,51.857C95.227,40.197,98.053,29.379,85.237,24.178C85.043,24.098,84.823,24.111,84.641,24.215C84.458,24.318,84.332,24.500,84.299,24.709C82.742,34.396,86.255,39.425,93.819,45.318C94.075,45.519,94.205,45.844,94.162,46.172L93.510,51.108C93.466,51.440,93.269,51.733,92.980,51.898C92.690,52.063,92.340,52.082,92.034,51.950C85.397,49.055,79.882,45.030,72.169,47.590C71.681,47.759,71.650,47.986,72.077,48.271C75.953,50.877,79.836,53.472,83.726,56.055C86.534,57.924,88.952,57.808,90.981,55.709C91.258,55.432,91.692,55.393,92.014,55.616C92.336,55.838,92.455,56.260,92.297,56.620L89.402,62.998C89.325,63.162,89.167,63.272,88.987,63.286C88.808,63.300,88.634,63.217,88.532,63.067C83.898,56.125,75.819,56.009,68.782,58.869C68.324,59.054,68.282,59.311,68.656,59.642C71.883,62.410,75.453,64.605,79.367,66.227C81.484,67.104,83.406,66.527,85.580,66.412C85.844,66.404,86.078,66.583,86.141,66.841C86.205,67.100,86.081,67.368,85.843,67.485C83.669,68.492,81.926,69.999,80.614,72.006C80.381,72.368,79.987,72.593,79.559,72.609C79.131,72.625,78.722,72.430,78.463,72.086C73.554,65.616,63.655,64.694,56.263,65.074C55.752,65.097,55.695,65.270,56.091,65.593C60.749,69.341,67.843,77.080,74.091,76.284C74.278,76.249,74.463,76.355,74.528,76.535C74.593,76.715,74.520,76.916,74.355,77.011L66.985,81.809C66.360,82.221,65.523,82.075,65.063,81.474C59.532,74.285,52.224,71.117,43.138,71.971C42.779,72.009,42.695,72.178,42.886,72.478C45.526,76.715,48.783,80.405,52.658,83.550C53.986,84.634,55.794,84.842,57.373,85.568C57.877,85.807,57.877,86.041,57.373,86.272ZZ" style="opacity: 1; fill: rgb(167, 167, 167);"/></g></g></g></svg>