<svg width="132.955" height="134" id="screenshot-5ba7bff4-fbe5-8044-8003-186d9769fa82" viewBox="0 0 132.955 134" style="-webkit-print-color-adjust: exact;" fill="none" version="1.1"><g id="shape-5ba7bff4-fbe5-8044-8003-186d9769fa82" width="119" version="1.2" height="119" rx="0" ry="0" style="fill: rgb(0, 0, 0);"><g id="shape-5ba7bff4-fbe5-8044-8003-186d976a32b0"><defs id="defs18" rx="0" ry="0" style="fill: rgb(0, 0, 0);"/></g><g id="shape-5ba7bff4-fbe5-8044-8003-186d976a32b1" rx="0" ry="0" style="fill: rgb(0, 0, 0);"><g id="shape-5ba7bff4-fbe5-8044-8003-186d976a32b4"><g class="fills" id="fills-5ba7bff4-fbe5-8044-8003-186d976a32b4"><path fill="none" stroke-linecap="butt" rx="0" ry="0" d="M130.925,66.977C130.925,31.091,102.061,2.000,66.455,2.000C30.849,2.000,1.984,31.091,1.984,66.977C1.984,102.863,30.849,131.954,66.455,131.954C102.061,131.954,130.925,102.863,130.925,66.977Z" style="opacity: 1; fill: none;"/></g><g id="strokes-5ba7bff4-fbe5-8044-8003-186d976a32b4" class="strokes"><g class="stroke-shape"><path stroke-linecap="butt" rx="0" ry="0" d="M130.925,66.977C130.925,31.091,102.061,2.000,66.455,2.000C30.849,2.000,1.984,31.091,1.984,66.977C1.984,102.863,30.849,131.954,66.455,131.954C102.061,131.954,130.925,102.863,130.925,66.977Z" style="opacity: 1; fill: none; stroke-width: 2; stroke: rgb(167, 167, 167); stroke-opacity: 1;"/></g></g></g><g id="shape-5ba7bff4-fbe5-8044-8003-186d976a32b5"><g class="fills" id="fills-5ba7bff4-fbe5-8044-8003-186d976a32b5"><path fill="none" stroke-linecap="butt" rx="0" ry="0" d="M58.064,86.146L52.938,88.533C52.564,88.710,52.259,88.625,52.022,88.279C47.483,81.813,41.422,77.473,33.839,75.258C33.420,75.143,33.225,75.305,33.256,75.743C33.874,83.293,37.661,88.356,44.619,90.932C44.768,90.983,44.863,91.131,44.849,91.289C44.836,91.447,44.717,91.576,44.561,91.601C35.621,93.308,26.592,93.853,17.476,93.238C17.048,93.208,16.846,93.408,16.869,93.838L16.984,95.660C17.020,96.281,17.552,96.755,18.174,96.721L36.185,95.614C36.921,95.571,37.567,96.102,37.673,96.837C38.908,105.417,47.388,113.629,56.531,109.477C56.897,109.308,57.023,109.035,56.908,108.658C54.677,100.816,49.470,97.575,42.090,94.495C41.670,94.319,41.682,94.173,42.124,94.057L52.583,91.347C52.696,91.316,52.818,91.335,52.919,91.398C53.020,91.461,53.093,91.563,53.121,91.681C55.123,100.250,63.500,108.935,72.963,103.849C74.741,102.895,74.824,101.807,73.215,100.585C68.546,97.033,62.767,90.078,56.588,90.378C56.338,90.420,56.103,90.249,56.062,89.998C56.021,89.746,56.190,89.508,56.439,89.467C59.994,88.437,63.244,86.826,66.189,84.635C66.472,84.423,66.846,84.382,67.169,84.527C67.493,84.672,67.717,84.982,67.756,85.338C68.695,94.092,81.214,96.468,87.942,95.418C88.299,95.361,88.598,95.115,88.726,94.774C88.854,94.433,88.790,94.050,88.560,93.769C83.342,87.495,79.726,83.677,71.155,82.962C70.989,82.949,70.848,82.833,70.803,82.671C70.757,82.509,70.815,82.336,70.949,82.236L79.589,75.731C79.751,75.610,79.958,75.566,80.153,75.613C80.348,75.660,80.511,75.792,80.596,75.973C85.047,85.211,97.852,90.113,104.351,78.926C104.618,78.465,104.485,78.219,103.951,78.188C98.859,77.911,95.964,78.661,91.604,75.616C89.075,73.851,87.370,73.102,84.738,72.444C84.510,72.391,84.339,72.201,84.308,71.968C84.278,71.734,84.394,71.506,84.601,71.395C86.653,70.226,88.282,68.612,89.487,66.551C89.691,66.204,90.030,65.960,90.421,65.876C90.813,65.793,91.221,65.879,91.547,66.113C99.065,71.533,106.949,73.367,114.719,67.162C114.938,66.989,115.063,66.720,115.057,66.437C115.050,66.154,114.912,65.889,114.684,65.721C107.872,60.731,100.743,60.288,93.297,64.394C92.997,64.556,92.627,64.492,92.397,64.239C92.168,63.986,92.138,63.608,92.325,63.322C93.950,60.900,95.060,58.274,95.655,55.445C95.724,55.112,95.937,54.827,96.236,54.669C96.535,54.511,96.888,54.495,97.199,54.626C104.111,57.532,111.332,58.097,116.424,51.639C116.660,51.337,116.730,50.936,116.610,50.572C116.491,50.207,116.197,49.928,115.829,49.828C110.931,48.521,106.034,48.398,101.136,49.459C100.770,49.536,100.442,49.697,100.152,49.943L97.543,52.181C97.360,52.333,97.108,52.369,96.891,52.274C96.673,52.179,96.527,51.969,96.513,51.731C95.918,40.071,98.744,29.253,85.928,24.052C85.734,23.972,85.515,23.985,85.332,24.088C85.149,24.192,85.023,24.374,84.990,24.582C83.433,34.270,86.946,39.298,94.510,45.192C94.766,45.393,94.896,45.718,94.854,46.045L94.201,50.981C94.157,51.314,93.961,51.607,93.671,51.772C93.381,51.937,93.031,51.956,92.725,51.823C86.088,48.928,80.573,44.903,72.860,47.464C72.372,47.633,72.341,47.860,72.769,48.144C76.644,50.751,80.527,53.346,84.418,55.929C87.225,57.797,89.643,57.682,91.672,55.583C91.950,55.306,92.383,55.266,92.705,55.489C93.027,55.712,93.146,56.134,92.988,56.494L90.093,62.872C90.016,63.036,89.858,63.145,89.678,63.160C89.499,63.174,89.326,63.091,89.224,62.941C84.589,55.998,76.510,55.883,69.473,58.743C69.015,58.928,68.973,59.185,69.347,59.516C72.574,62.284,76.144,64.479,80.058,66.101C82.175,66.978,84.097,66.401,86.271,66.286C86.535,66.278,86.769,66.456,86.833,66.715C86.896,66.973,86.772,67.241,86.535,67.358C84.360,68.365,82.617,69.872,81.305,71.879C81.072,72.241,80.678,72.466,80.250,72.482C79.822,72.499,79.413,72.304,79.154,71.960C74.245,65.490,64.346,64.567,56.954,64.948C56.443,64.971,56.386,65.144,56.783,65.467C61.440,69.215,68.535,76.954,74.783,76.158C74.969,76.123,75.154,76.229,75.219,76.409C75.284,76.589,75.211,76.790,75.046,76.885L67.676,81.682C67.051,82.095,66.214,81.949,65.754,81.348C60.223,74.159,52.915,70.991,43.829,71.845C43.470,71.883,43.387,72.052,43.577,72.352C46.217,76.589,49.474,80.279,53.350,83.424C54.677,84.508,56.485,84.715,58.064,85.442C58.568,85.680,58.568,85.915,58.064,86.146Z" style="opacity: 1; fill: none;"/></g><g id="strokes-5ba7bff4-fbe5-8044-8003-186d976a32b5" class="strokes"><g class="stroke-shape"><path stroke-linecap="butt" rx="0" ry="0" d="M58.064,86.146L52.938,88.533C52.564,88.710,52.259,88.625,52.022,88.279C47.483,81.813,41.422,77.473,33.839,75.258C33.420,75.143,33.225,75.305,33.256,75.743C33.874,83.293,37.661,88.356,44.619,90.932C44.768,90.983,44.863,91.131,44.849,91.289C44.836,91.447,44.717,91.576,44.561,91.601C35.621,93.308,26.592,93.853,17.476,93.238C17.048,93.208,16.846,93.408,16.869,93.838L16.984,95.660C17.020,96.281,17.552,96.755,18.174,96.721L36.185,95.614C36.921,95.571,37.567,96.102,37.673,96.837C38.908,105.417,47.388,113.629,56.531,109.477C56.897,109.308,57.023,109.035,56.908,108.658C54.677,100.816,49.470,97.575,42.090,94.495C41.670,94.319,41.682,94.173,42.124,94.057L52.583,91.347C52.696,91.316,52.818,91.335,52.919,91.398C53.020,91.461,53.093,91.563,53.121,91.681C55.123,100.250,63.500,108.935,72.963,103.849C74.741,102.895,74.824,101.807,73.215,100.585C68.546,97.033,62.767,90.078,56.588,90.378C56.338,90.420,56.103,90.249,56.062,89.998C56.021,89.746,56.190,89.508,56.439,89.467C59.994,88.437,63.244,86.826,66.189,84.635C66.472,84.423,66.846,84.382,67.169,84.527C67.493,84.672,67.717,84.982,67.756,85.338C68.695,94.092,81.214,96.468,87.942,95.418C88.299,95.361,88.598,95.115,88.726,94.774C88.854,94.433,88.790,94.050,88.560,93.769C83.342,87.495,79.726,83.677,71.155,82.962C70.989,82.949,70.848,82.833,70.803,82.671C70.757,82.509,70.815,82.336,70.949,82.236L79.589,75.731C79.751,75.610,79.958,75.566,80.153,75.613C80.348,75.660,80.511,75.792,80.596,75.973C85.047,85.211,97.852,90.113,104.351,78.926C104.618,78.465,104.485,78.219,103.951,78.188C98.859,77.911,95.964,78.661,91.604,75.616C89.075,73.851,87.370,73.102,84.738,72.444C84.510,72.391,84.339,72.201,84.308,71.968C84.278,71.734,84.394,71.506,84.601,71.395C86.653,70.226,88.282,68.612,89.487,66.551C89.691,66.204,90.030,65.960,90.421,65.876C90.813,65.793,91.221,65.879,91.547,66.113C99.065,71.533,106.949,73.367,114.719,67.162C114.938,66.989,115.063,66.720,115.057,66.437C115.050,66.154,114.912,65.889,114.684,65.721C107.872,60.731,100.743,60.288,93.297,64.394C92.997,64.556,92.627,64.492,92.397,64.239C92.168,63.986,92.138,63.608,92.325,63.322C93.950,60.900,95.060,58.274,95.655,55.445C95.724,55.112,95.937,54.827,96.236,54.669C96.535,54.511,96.888,54.495,97.199,54.626C104.111,57.532,111.332,58.097,116.424,51.639C116.660,51.337,116.730,50.936,116.610,50.572C116.491,50.207,116.197,49.928,115.829,49.828C110.931,48.521,106.034,48.398,101.136,49.459C100.770,49.536,100.442,49.697,100.152,49.943L97.543,52.181C97.360,52.333,97.108,52.369,96.891,52.274C96.673,52.179,96.527,51.969,96.513,51.731C95.918,40.071,98.744,29.253,85.928,24.052C85.734,23.972,85.515,23.985,85.332,24.088C85.149,24.192,85.023,24.374,84.990,24.582C83.433,34.270,86.946,39.298,94.510,45.192C94.766,45.393,94.896,45.718,94.854,46.045L94.201,50.981C94.157,51.314,93.961,51.607,93.671,51.772C93.381,51.937,93.031,51.956,92.725,51.823C86.088,48.928,80.573,44.903,72.860,47.464C72.372,47.633,72.341,47.860,72.769,48.144C76.644,50.751,80.527,53.346,84.418,55.929C87.225,57.797,89.643,57.682,91.672,55.583C91.950,55.306,92.383,55.266,92.705,55.489C93.027,55.712,93.146,56.134,92.988,56.494L90.093,62.872C90.016,63.036,89.858,63.145,89.678,63.160C89.499,63.174,89.326,63.091,89.224,62.941C84.589,55.998,76.510,55.883,69.473,58.743C69.015,58.928,68.973,59.185,69.347,59.516C72.574,62.284,76.144,64.479,80.058,66.101C82.175,66.978,84.097,66.401,86.271,66.286C86.535,66.278,86.769,66.456,86.833,66.715C86.896,66.973,86.772,67.241,86.535,67.358C84.360,68.365,82.617,69.872,81.305,71.879C81.072,72.241,80.678,72.466,80.250,72.482C79.822,72.499,79.413,72.304,79.154,71.960C74.245,65.490,64.346,64.567,56.954,64.948C56.443,64.971,56.386,65.144,56.783,65.467C61.440,69.215,68.535,76.954,74.783,76.158C74.969,76.123,75.154,76.229,75.219,76.409C75.284,76.589,75.211,76.790,75.046,76.885L67.676,81.682C67.051,82.095,66.214,81.949,65.754,81.348C60.223,74.159,52.915,70.991,43.829,71.845C43.470,71.883,43.387,72.052,43.577,72.352C46.217,76.589,49.474,80.279,53.350,83.424C54.677,84.508,56.485,84.715,58.064,85.442C58.568,85.680,58.568,85.915,58.064,86.146Z" style="opacity: 1; fill: none; stroke-width: 2; stroke: rgb(167, 167, 167); stroke-opacity: 1;"/></g></g></g></g><g id="shape-5ba7bff4-fbe5-8044-8003-186d976a32b2"><g class="fills" id="fills-5ba7bff4-fbe5-8044-8003-186d976a32b2"><path rx="0" ry="0" d="M130.925,66.977C130.925,102.863,102.061,131.954,66.455,131.954C49.356,131.954,32.958,125.108,20.867,112.923C8.777,100.737,1.984,84.210,1.984,66.977C1.984,31.091,30.849,2.000,66.455,2.000C102.061,2.000,130.925,31.091,130.925,66.977ZZM57.357,86.272L52.231,88.659C51.857,88.836,51.552,88.751,51.315,88.405C46.776,81.939,40.715,77.599,33.132,75.385C32.713,75.269,32.518,75.431,32.549,75.869C33.167,83.419,36.954,88.482,43.912,91.058C44.061,91.110,44.156,91.257,44.142,91.415C44.129,91.573,44.010,91.702,43.855,91.727C34.914,93.434,25.885,93.980,16.769,93.365C16.342,93.334,16.139,93.534,16.162,93.964L16.277,95.787C16.313,96.407,16.845,96.881,17.467,96.848L35.478,95.740C36.214,95.697,36.860,96.228,36.966,96.963C38.202,105.544,46.681,113.755,55.824,109.603C56.190,109.434,56.316,109.161,56.202,108.784C53.970,100.942,48.764,97.701,41.383,94.622C40.963,94.445,40.975,94.299,41.417,94.184L51.876,91.473C51.990,91.443,52.111,91.461,52.212,91.524C52.314,91.587,52.386,91.689,52.414,91.808C54.417,100.377,62.793,109.061,72.256,103.975C74.034,103.022,74.118,101.934,72.508,100.711C67.839,97.159,62.061,90.205,55.881,90.504C55.632,90.546,55.396,90.375,55.355,90.124C55.314,89.872,55.483,89.635,55.732,89.593C59.287,88.563,62.537,86.952,65.482,84.761C65.765,84.549,66.139,84.508,66.463,84.653C66.786,84.799,67.010,85.108,67.050,85.465C67.988,94.218,80.507,96.594,87.235,95.544C87.592,95.487,87.892,95.242,88.019,94.901C88.147,94.560,88.084,94.176,87.853,93.895C82.635,87.621,79.019,83.804,70.448,83.089C70.282,83.075,70.142,82.959,70.096,82.797C70.050,82.636,70.108,82.462,70.242,82.362L78.882,75.858C79.044,75.736,79.251,75.693,79.446,75.739C79.641,75.786,79.804,75.919,79.889,76.100C84.340,85.338,97.145,90.239,103.645,79.052C103.912,78.591,103.778,78.345,103.244,78.314C98.152,78.037,95.257,78.787,90.897,75.742C88.368,73.978,86.663,73.228,84.031,72.571C83.803,72.518,83.632,72.328,83.601,72.094C83.571,71.860,83.687,71.632,83.894,71.521C85.946,70.352,87.575,68.738,88.780,66.677C88.984,66.331,89.323,66.086,89.715,66.003C90.106,65.919,90.514,66.005,90.840,66.239C98.358,71.660,106.242,73.493,114.012,67.288C114.232,67.115,114.357,66.847,114.350,66.564C114.343,66.281,114.206,66.015,113.978,65.847C107.165,60.857,100.036,60.415,92.591,64.521C92.291,64.682,91.920,64.619,91.691,64.365C91.461,64.112,91.431,63.735,91.618,63.448C93.243,61.026,94.353,58.400,94.948,55.571C95.017,55.238,95.230,54.954,95.529,54.795C95.828,54.637,96.181,54.621,96.493,54.752C103.404,57.658,110.625,58.224,115.717,51.765C115.953,51.464,116.024,51.063,115.904,50.698C115.784,50.333,115.490,50.054,115.122,49.954C110.224,48.647,105.327,48.524,100.429,49.585C100.063,49.662,99.735,49.824,99.445,50.070L96.836,52.307C96.654,52.460,96.402,52.496,96.184,52.401C95.967,52.306,95.821,52.096,95.806,51.857C95.211,40.197,98.038,29.379,85.221,24.178C85.027,24.098,84.808,24.111,84.625,24.215C84.442,24.318,84.316,24.500,84.283,24.709C82.727,34.396,86.240,39.425,93.804,45.318C94.059,45.519,94.190,45.844,94.147,46.172L93.495,51.108C93.450,51.440,93.254,51.733,92.964,51.898C92.674,52.063,92.324,52.082,92.018,51.950C85.381,49.055,79.866,45.030,72.153,47.590C71.665,47.759,71.635,47.986,72.062,48.271C75.937,50.877,79.820,53.472,83.711,56.055C86.518,57.924,88.936,57.808,90.966,55.709C91.243,55.432,91.676,55.393,91.998,55.616C92.320,55.838,92.439,56.260,92.282,56.620L89.387,62.998C89.309,63.162,89.151,63.272,88.972,63.286C88.792,63.300,88.619,63.217,88.517,63.067C83.882,56.125,75.804,56.009,68.766,58.869C68.308,59.054,68.266,59.311,68.640,59.642C71.867,62.410,75.437,64.605,79.351,66.227C81.468,67.104,83.390,66.527,85.565,66.412C85.829,66.404,86.062,66.583,86.126,66.841C86.189,67.100,86.065,67.368,85.828,67.485C83.654,68.492,81.910,69.999,80.598,72.006C80.365,72.368,79.972,72.593,79.543,72.609C79.115,72.625,78.706,72.430,78.447,72.086C73.538,65.616,63.640,64.694,56.247,65.074C55.736,65.097,55.679,65.270,56.076,65.593C60.733,69.341,67.828,77.080,74.076,76.284C74.263,76.249,74.447,76.355,74.512,76.535C74.578,76.715,74.504,76.916,74.339,77.011L66.970,81.809C66.344,82.221,65.507,82.075,65.047,81.474C59.516,74.285,52.208,71.117,43.122,71.971C42.764,72.009,42.680,72.178,42.870,72.478C45.510,76.715,48.767,80.405,52.643,83.550C53.970,84.634,55.778,84.842,57.357,85.568C57.861,85.807,57.861,86.041,57.357,86.272ZZ" style="opacity: 1; fill: rgb(167, 167, 167);"/></g></g><g id="shape-5ba7bff4-fbe5-8044-8003-186d976a32b3"><g class="fills" id="fills-5ba7bff4-fbe5-8044-8003-186d976a32b3"><path rx="0" ry="0" d="M58.064,85.442C56.485,84.715,54.677,84.508,53.350,83.424C49.474,80.279,46.217,76.589,43.577,72.352C43.387,72.052,43.470,71.883,43.829,71.845C52.915,70.991,60.223,74.159,65.754,81.348C66.214,81.949,67.051,82.095,67.676,81.682L75.046,76.885C75.211,76.790,75.284,76.589,75.219,76.409C75.154,76.229,74.969,76.123,74.783,76.158C68.535,76.954,61.440,69.215,56.783,65.467C56.386,65.144,56.443,64.971,56.954,64.948C64.346,64.567,74.245,65.490,79.154,71.960C79.413,72.304,79.822,72.499,80.250,72.482C80.678,72.466,81.072,72.241,81.305,71.879C82.617,69.872,84.360,68.365,86.535,67.358C86.772,67.241,86.896,66.973,86.833,66.715C86.769,66.456,86.535,66.278,86.271,66.286C84.097,66.401,82.175,66.978,80.058,66.101C76.144,64.479,72.574,62.284,69.347,59.516C68.973,59.185,69.015,58.928,69.473,58.743C76.510,55.883,84.589,55.998,89.224,62.941C89.326,63.091,89.499,63.174,89.678,63.160C89.858,63.145,90.016,63.036,90.093,62.872L92.988,56.494C93.146,56.134,93.027,55.712,92.705,55.489C92.383,55.266,91.950,55.306,91.672,55.583C89.643,57.682,87.225,57.797,84.418,55.929C80.527,53.346,76.644,50.751,72.769,48.144C72.341,47.860,72.372,47.633,72.860,47.464C80.573,44.903,86.088,48.928,92.725,51.823C93.031,51.956,93.381,51.937,93.671,51.772C93.961,51.607,94.157,51.314,94.201,50.981L94.854,46.045C94.896,45.718,94.766,45.393,94.510,45.192C86.947,39.298,83.433,34.270,84.990,24.582C85.023,24.374,85.149,24.192,85.332,24.088C85.515,23.985,85.734,23.972,85.928,24.052C98.744,29.253,95.918,40.071,96.513,51.731C96.527,51.969,96.673,52.179,96.891,52.274C97.108,52.369,97.360,52.333,97.543,52.181L100.152,49.943C100.442,49.697,100.770,49.536,101.136,49.459C106.034,48.398,110.931,48.521,115.829,49.828C116.197,49.928,116.491,50.207,116.610,50.572C116.730,50.936,116.660,51.337,116.424,51.639C111.332,58.097,104.111,57.532,97.199,54.626C96.888,54.495,96.535,54.511,96.236,54.669C95.937,54.827,95.724,55.112,95.655,55.445C95.060,58.274,93.950,60.900,92.325,63.322C92.138,63.608,92.168,63.986,92.397,64.239C92.627,64.492,92.997,64.556,93.297,64.394C100.743,60.289,107.872,60.731,114.685,65.721C114.912,65.889,115.050,66.154,115.057,66.437C115.063,66.720,114.938,66.989,114.719,67.162C106.949,73.367,99.065,71.533,91.547,66.113C91.221,65.879,90.813,65.793,90.421,65.876C90.030,65.960,89.691,66.204,89.487,66.551C88.281,68.612,86.653,70.226,84.601,71.395C84.394,71.506,84.278,71.734,84.308,71.968C84.339,72.201,84.510,72.391,84.738,72.444C87.370,73.102,89.075,73.851,91.604,75.616C95.964,78.661,98.859,77.911,103.951,78.188C104.485,78.219,104.618,78.465,104.351,78.926C97.852,90.113,85.047,85.211,80.596,75.973C80.510,75.792,80.348,75.660,80.153,75.613C79.958,75.566,79.751,75.610,79.589,75.731L70.949,82.236C70.815,82.336,70.757,82.509,70.802,82.671C70.848,82.833,70.989,82.949,71.155,82.962C79.726,83.677,83.342,87.495,88.560,93.769C88.790,94.050,88.854,94.433,88.726,94.774C88.598,95.115,88.299,95.361,87.942,95.418C81.214,96.468,68.695,94.092,67.756,85.338C67.717,84.982,67.493,84.672,67.169,84.527C66.846,84.382,66.472,84.423,66.189,84.635C63.244,86.826,59.994,88.437,56.439,89.467C56.190,89.509,56.021,89.746,56.062,89.998C56.103,90.249,56.339,90.419,56.588,90.378C62.767,90.078,68.546,97.033,73.215,100.585C74.824,101.807,74.741,102.895,72.963,103.849C63.500,108.935,55.123,100.250,53.121,91.681C53.093,91.563,53.020,91.461,52.919,91.398C52.818,91.335,52.697,91.316,52.583,91.347L42.124,94.057C41.682,94.173,41.670,94.319,42.090,94.495C49.470,97.575,54.677,100.816,56.908,108.658C57.023,109.035,56.897,109.308,56.531,109.477C47.388,113.629,38.908,105.417,37.673,96.837C37.567,96.102,36.921,95.571,36.185,95.614L18.174,96.721C17.552,96.755,17.020,96.281,16.984,95.660L16.869,93.838C16.846,93.408,17.048,93.208,17.476,93.238C26.592,93.853,35.621,93.308,44.561,91.601C44.717,91.576,44.836,91.447,44.849,91.289C44.863,91.131,44.768,90.983,44.619,90.932C37.661,88.356,33.874,83.293,33.256,75.743C33.225,75.305,33.420,75.143,33.839,75.258C41.422,77.473,47.483,81.813,52.022,88.279C52.259,88.625,52.564,88.710,52.938,88.533L58.064,86.146C58.568,85.915,58.568,85.680,58.064,85.442ZZ" style="opacity: 1; fill: rgb(255, 255, 249);"/></g></g></g></svg>