<?xml version="1.0" encoding="UTF-8" standalone="no"?>
<!DOCTYPE svg PUBLIC "-//W3C//DTD SVG 1.1//EN" "http://www.w3.org/Graphics/SVG/1.1/DTD/svg11.dtd">
<svg version="1.1" viewBox="0.00 0.00 948.00 237.00">
<g stroke-width="1.00" fill="none" stroke-linecap="butt">
<path stroke="#d4e79c" vector-effect="non-scaling-stroke" d="
  M 931.75 18.26
  A 0.26 0.26 0.0 0 0 931.49 18.00
  L 235.49 18.00
  A 0.26 0.26 0.0 0 0 235.23 18.26
  L 235.23 34.24
  A 0.26 0.26 0.0 0 0 235.49 34.50
  L 931.49 34.50
  A 0.26 0.26 0.0 0 0 931.75 34.24
  L 931.75 18.26"
/>
<path stroke="#d4e79c" vector-effect="non-scaling-stroke" d="
  M 214.24 101.02
  C 205.93 56.76 170.45 23.71 125.26 20.11
  Q 124.78 20.07 124.33 20.26
  Q 123.36 20.65 122.25 20.59
  Q 111.45 20.01 100.80 21.40
  C 95.28 22.12 89.74 24.49 84.22 26.19
  Q 76.46 28.58 72.16 30.82
  C 44.36 45.23 25.24 72.49 20.57 103.40
  C 18.77 115.30 20.74 128.98 22.41 140.68
  Q 23.19 146.16 24.63 150.34
  C 36.26 184.12 65.03 210.00 100.75 215.72
  C 102.39 215.98 103.89 215.71 105.40 215.88
  C 160.24 222.11 207.15 184.24 214.11 129.97
  C 215.16 121.73 215.63 108.43 214.24 101.02"
/>
<path stroke="#808080" vector-effect="non-scaling-stroke" d="
  M 250.19 97.31
  C 259.47 104.07 272.03 103.27 282.22 107.99
  C 288.74 111.01 289.32 119.85 283.42 123.68
  C 273.82 129.90 257.94 127.70 253.76 115.65
  Q 253.62 115.25 253.19 115.25
  L 241.50 115.25
  Q 240.92 115.25 240.99 115.82
  C 243.93 141.58 290.19 144.23 298.96 121.66
  C 302.06 113.66 299.27 103.57 292.20 98.62
  C 286.44 94.60 275.34 92.87 267.52 90.90
  C 260.52 89.12 254.65 86.52 256.79 78.32
  C 259.94 66.28 285.03 67.77 286.52 82.04
  Q 286.57 82.50 287.03 82.50
  L 298.74 82.50
  Q 299.27 82.50 299.24 81.97
  C 297.90 57.08 259.95 54.19 247.36 69.85
  C 241.15 77.58 241.39 90.90 250.19 97.31"
/>
<path stroke="#808080" vector-effect="non-scaling-stroke" d="
  M 571.61 95.80
  Q 579.51 91.98 584.64 85.22
  C 588.85 79.66 589.73 72.37 584.82 67.20
  C 577.10 59.09 561.88 57.78 552.75 63.99
  C 540.27 72.48 546.61 85.25 554.53 93.89
  Q 554.91 94.31 554.41 94.58
  C 545.09 99.64 536.18 106.05 536.56 117.76
  C 536.87 127.26 542.95 134.05 552.28 135.71
  Q 569.31 138.74 583.17 128.47
  Q 583.61 128.14 583.98 128.56
  L 590.05 135.60
  Q 590.40 136.00 590.93 136.00
  L 604.25 136.00
  A 0.29 0.29 0.0 0 0 604.47 135.52
  L 591.37 120.20
  Q 591.05 119.83 591.32 119.43
  C 596.19 112.05 601.40 103.84 603.23 95.08
  Q 603.35 94.50 602.76 94.50
  L 591.28 94.50
  Q 590.85 94.50 590.80 94.92
  Q 589.61 103.90 585.35 111.84
  Q 585.03 112.44 584.59 111.92
  L 571.44 96.61
  Q 570.99 96.10 571.61 95.80"
/>
<path stroke="#808080" vector-effect="non-scaling-stroke" d="
  M 645.37 70.13
  Q 642.43 73.80 641.93 76.77
  C 637.88 100.86 659.55 102.20 675.96 106.41
  C 689.93 110.00 688.34 123.66 675.31 126.31
  C 665.85 128.24 655.45 125.84 652.10 115.72
  Q 651.94 115.25 651.45 115.25
  L 639.77 115.25
  Q 639.17 115.25 639.26 115.85
  C 643.50 144.14 696.77 144.06 698.25 115.88
  C 699.89 84.38 649.13 99.41 654.99 78.24
  C 658.27 66.40 683.26 67.68 684.70 82.00
  A 0.56 0.55 87.1 0 0 685.25 82.50
  L 696.99 82.50
  Q 697.45 82.50 697.43 82.04
  C 696.42 56.94 658.13 54.24 645.37 70.13"
/>
<path stroke="#808080" vector-effect="non-scaling-stroke" d="
  M 751.59 61.38
  C 726.19 54.89 709.13 72.56 708.64 96.85
  C 708.27 115.37 715.18 132.43 734.73 136.35
  C 752.51 139.92 768.73 131.01 773.50 112.99
  C 778.53 93.97 774.11 67.14 751.59 61.38"
/>
<path stroke="#808080" vector-effect="non-scaling-stroke" d="
  M 924.16 82.05
  C 922.71 52.77 869.83 53.30 868.28 81.00
  C 866.57 111.50 911.75 97.79 912.47 115.58
  C 913.07 130.41 883.12 130.92 879.04 115.85
  Q 878.87 115.25 878.25 115.25
  L 866.48 115.25
  Q 865.85 115.25 865.95 115.86
  C 870.39 143.35 920.97 144.17 924.93 117.86
  C 928.14 96.55 905.89 94.07 891.52 90.66
  Q 886.43 89.45 884.05 87.45
  C 879.00 83.19 881.49 74.35 887.24 71.98
  C 896.03 68.35 910.25 70.30 911.53 82.04
  Q 911.58 82.50 912.04 82.50
  L 923.73 82.50
  Q 924.18 82.50 924.16 82.05"
/>
<path stroke="#808080" vector-effect="non-scaling-stroke" d="
  M 335.31 92.67
  L 317.52 61.70
  A 0.90 0.90 0.0 0 0 316.74 61.25
  L 304.26 61.25
  Q 303.70 61.25 303.98 61.73
  Q 316.08 82.12 328.27 102.49
  Q 329.31 104.24 329.36 106.27
  Q 329.69 120.77 329.39 135.37
  Q 329.38 136.00 330.01 136.00
  L 341.50 136.00
  A 0.50 0.50 0.0 0 0 342.00 135.50
  L 342.00 104.79
  Q 342.00 104.26 342.27 103.81
  L 367.28 61.76
  Q 367.58 61.25 366.99 61.25
  L 354.42 61.25
  Q 353.87 61.25 353.60 61.73
  L 336.13 92.67
  Q 335.72 93.39 335.31 92.67"
/>
<path stroke="#808080" vector-effect="non-scaling-stroke" d="
  M 390.62 125.00
  A 0.37 0.37 0.0 0 1 390.25 124.63
  L 390.25 103.87
  A 0.37 0.37 0.0 0 1 390.62 103.50
  L 422.63 103.50
  A 0.37 0.37 0.0 0 0 423.00 103.13
  L 423.00 93.37
  A 0.37 0.37 0.0 0 0 422.63 93.00
  L 390.87 93.00
  A 0.37 0.37 0.0 0 1 390.50 92.63
  L 390.50 72.37
  A 0.37 0.37 0.0 0 1 390.87 72.00
  L 426.88 72.00
  A 0.37 0.37 0.0 0 0 427.25 71.63
  L 427.25 61.62
  A 0.37 0.37 0.0 0 0 426.88 61.25
  L 378.22 61.25
  A 0.37 0.37 0.0 0 0 377.85 61.62
  L 377.73 135.63
  A 0.37 0.37 0.0 0 0 378.10 136.00
  L 427.63 136.00
  A 0.37 0.37 0.0 0 0 428.00 135.63
  L 428.00 125.37
  A 0.37 0.37 0.0 0 0 427.63 125.00
  L 390.62 125.00"
/>
<path stroke="#808080" vector-effect="non-scaling-stroke" d="
  M 467.70 135.65
  C 493.50 134.74 504.62 115.52 501.84 91.71
  C 498.16 60.10 469.24 59.95 443.72 61.54
  Q 443.25 61.57 443.25 62.04
  L 443.25 135.29
  Q 443.25 135.95 443.91 135.97
  Q 452.57 136.19 467.70 135.65"
/>
<path stroke="#808080" vector-effect="non-scaling-stroke" d="
  M 801.91 136.00
  A 0.30 0.30 0.0 0 0 802.21 135.70
  L 802.38 82.05
  A 0.30 0.30 0.0 0 1 802.92 81.88
  L 839.93 135.87
  A 0.30 0.30 0.0 0 0 840.18 136.00
  L 850.95 136.00
  A 0.30 0.30 0.0 0 0 851.25 135.70
  L 851.25 61.55
  A 0.30 0.30 0.0 0 0 850.95 61.25
  L 839.05 61.25
  A 0.30 0.30 0.0 0 0 838.75 61.55
  L 838.75 113.65
  A 0.30 0.30 0.0 0 1 838.20 113.82
  L 802.23 61.38
  A 0.30 0.30 0.0 0 0 801.98 61.25
  L 790.05 61.25
  A 0.30 0.30 0.0 0 0 789.75 61.55
  L 789.75 135.70
  A 0.30 0.30 0.0 0 0 790.05 136.00
  L 801.91 136.00"
/>
<path stroke="#d4e79c" vector-effect="non-scaling-stroke" d="
  M 931.75 163.76
  A 0.26 0.26 0.0 0 0 931.49 163.50
  L 235.51 163.50
  A 0.26 0.26 0.0 0 0 235.25 163.76
  L 235.25 220.24
  A 0.26 0.26 0.0 0 0 235.51 220.50
  L 931.49 220.50
  A 0.26 0.26 0.0 0 0 931.75 220.24
  L 931.75 163.76"
/>
<path stroke="#d4e79c" vector-effect="non-scaling-stroke" d="
  M 104.78 147.07
  L 96.81 150.76
  Q 96.23 151.02 95.87 150.50
  Q 85.58 135.92 68.41 130.88
  A 0.85 0.85 0.0 0 0 67.41 132.07
  Q 67.87 132.99 67.48 134.05
  Q 67.32 134.48 67.41 134.93
  C 69.45 145.00 75.13 150.44 84.39 154.56
  A 0.40 0.39 -38.4 0 1 84.30 155.31
  Q 64.19 159.19 43.77 157.86
  A 1.22 1.22 0.0 0 0 42.48 159.11
  L 42.55 161.98
  Q 42.57 162.71 43.29 162.82
  Q 45.25 163.12 47.25 162.99
  Q 59.89 162.19 72.24 161.64
  A 1.43 1.42 -5.4 0 1 73.71 162.85
  C 75.79 176.61 87.71 187.71 102.26 182.45
  Q 103.46 182.01 103.10 180.79
  C 99.59 169.08 91.55 164.33 81.12 159.79
  Q 80.19 159.39 81.17 159.13
  L 96.46 155.16
  A 0.65 0.64 72.8 0 1 97.23 155.57
  C 98.79 159.87 100.48 164.90 103.50 168.41
  C 109.85 175.79 117.91 178.39 127.20 173.77
  C 129.91 172.42 129.75 170.75 127.63 168.92
  C 120.02 162.37 113.03 154.72 102.44 153.31
  A 0.51 0.51 0.0 0 1 102.36 152.31
  Q 110.46 149.76 117.37 144.81
  A 0.75 0.75 0.0 0 1 118.55 145.29
  Q 120.27 154.80 129.46 158.57
  C 133.18 160.09 147.84 163.68 150.78 160.36
  A 1.14 1.13 -43.3 0 0 150.83 158.91
  C 144.11 150.27 136.59 143.36 125.22 142.55
  Q 122.93 142.38 124.77 141.01
  L 137.62 131.39
  A 0.60 0.60 0.0 0 1 138.51 131.58
  Q 141.88 137.65 147.21 141.84
  C 156.60 149.23 168.40 146.86 174.25 136.20
  A 0.72 0.72 0.0 0 0 173.56 135.13
  C 167.27 135.65 161.16 135.10 155.76 131.62
  Q 150.57 128.28 144.71 126.43
  A 0.66 0.66 0.0 0 1 144.56 125.24
  Q 149.22 122.31 152.16 117.66
  A 1.58 1.58 0.0 0 1 154.35 117.17
  C 166.45 124.94 177.40 128.34 189.63 118.83
  A 1.53 1.52 43.5 0 0 189.56 116.37
  Q 175.26 106.45 159.87 113.38
  C 159.09 113.74 157.89 114.79 156.73 114.45
  A 0.84 0.83 23.9 0 1 156.25 113.22
  Q 159.72 107.47 161.45 100.97
  A 1.35 1.34 -70.5 0 1 163.29 100.09
  C 173.04 104.44 185.79 104.93 192.51 95.15
  A 1.50 1.50 0.0 0 0 191.64 92.85
  Q 180.63 90.03 170.09 92.07
  C 167.43 92.59 165.87 94.45 163.88 96.10
  A 0.92 0.92 0.0 0 1 162.37 95.34
  Q 162.84 86.94 162.25 78.50
  C 161.37 66.15 158.00 58.36 146.36 54.10
  A 1.14 1.13 -74.4 0 0 144.86 54.95
  Q 143.86 59.87 145.20 64.71
  Q 145.31 65.13 145.21 65.55
  C 144.21 69.65 148.38 74.32 150.56 77.55
  C 152.91 81.03 156.46 83.29 159.61 86.13
  Q 160.03 86.50 159.95 87.06
  L 158.78 94.63
  A 1.35 1.35 0.0 0 1 156.93 95.67
  C 147.12 91.60 137.51 84.86 126.36 89.58
  Q 125.85 89.80 126.30 90.13
  Q 135.01 96.38 144.13 101.97
  C 148.28 104.52 152.00 104.65 155.50 101.35
  A 0.87 0.87 0.0 0 1 156.89 102.33
  L 152.50 112.39
  Q 152.23 113.02 151.83 112.47
  C 144.18 102.08 131.99 101.52 120.91 106.50
  A 0.32 0.32 0.0 0 0 120.84 107.04
  Q 127.78 112.82 136.02 116.61
  C 139.63 118.27 143.23 117.77 147.08 117.74
  A 0.59 0.59 0.0 0 1 147.36 118.86
  Q 142.40 121.49 139.07 125.99
  A 1.55 1.54 43.6 0 1 136.63 126.05
  C 128.87 116.55 114.45 114.50 102.99 115.49
  A 0.32 0.31 -28.6 0 0 102.82 116.05
  C 106.24 118.69 108.78 121.90 111.05 123.95
  Q 119.04 131.17 129.90 132.79
  Q 130.62 132.90 130.01 133.29
  L 118.65 140.63
  A 1.32 1.32 0.0 0 1 116.93 140.39
  C 107.84 129.99 98.06 124.29 83.62 125.79
  Q 82.21 125.93 82.98 127.12
  C 88.26 135.21 94.95 143.27 104.73 146.31
  Q 105.74 146.63 104.78 147.07"
/>
<path stroke="#808080" vector-effect="non-scaling-stroke" d="
  M 575.73 72.03
  C 570.00 63.87 553.90 69.10 559.14 80.52
  C 560.40 83.26 562.95 86.73 565.43 89.19
  Q 565.75 89.50 566.14 89.30
  C 572.23 86.15 580.58 78.95 575.73 72.03"
/>
<path stroke="#808080" vector-effect="non-scaling-stroke" d="
  M 560.62 101.94
  C 556.04 104.59 551.08 108.92 550.56 114.66
  C 550.00 120.77 554.73 125.86 560.77 126.48
  Q 569.71 127.41 576.95 120.96
  Q 577.33 120.62 577.00 120.24
  L 561.41 102.08
  Q 561.07 101.68 560.62 101.94"
/>
<path stroke="#808080" vector-effect="non-scaling-stroke" d="
  M 746.30 71.15
  C 735.66 68.94 726.58 74.93 724.00 85.25
  C 720.37 99.80 720.79 128.02 743.66 126.24
  Q 758.10 125.11 760.82 109.21
  C 762.89 97.08 762.73 74.57 746.30 71.15"
/>
<path stroke="#808080" vector-effect="non-scaling-stroke" d="
  M 456.08 72.15
  L 455.90 124.81
  A 0.62 0.62 0.0 0 0 456.52 125.43
  L 465.64 125.47
  A 23.26 23.22 -89.8 0 0 488.94 102.29
  L 488.96 94.91
  A 23.26 23.22 -89.8 0 0 465.82 71.57
  L 456.70 71.53
  A 0.62 0.62 0.0 0 0 456.08 72.15"
/>
<path stroke="#d4e79c" vector-effect="non-scaling-stroke" d="
  M 631.87 178.46
  C 627.16 181.02 627.08 187.51 630.40 190.40
  C 633.42 193.04 639.82 193.69 643.26 194.98
  C 650.64 197.75 638.30 208.31 632.18 198.41
  Q 631.93 198.00 631.45 198.00
  L 627.94 198.00
  Q 627.28 198.00 627.42 198.65
  C 629.61 208.45 647.59 209.05 650.01 199.72
  C 653.54 186.08 631.23 191.59 633.41 183.70
  C 634.90 178.33 643.24 179.82 645.08 184.40
  Q 645.32 185.00 645.96 185.00
  L 649.31 185.00
  Q 649.99 185.00 649.91 184.33
  C 648.89 175.61 638.12 175.06 631.87 178.46"
/>
<path stroke="#d4e79c" vector-effect="non-scaling-stroke" d="
  M 704.49 188.38
  A 11.73 11.73 0.0 0 0 692.76 176.65
  L 690.62 176.65
  A 11.73 11.73 0.0 0 0 678.89 188.38
  L 678.89 194.38
  A 11.73 11.73 0.0 0 0 690.62 206.11
  L 692.76 206.11
  A 11.73 11.73 0.0 0 0 704.49 194.38
  L 704.49 188.38"
/>
<path stroke="#d4e79c" vector-effect="non-scaling-stroke" d="
  M 406.08 181.25
  A 0.42 0.42 0.0 0 1 406.50 181.67
  L 406.50 205.58
  A 0.42 0.42 0.0 0 0 406.92 206.00
  L 410.92 206.00
  A 0.42 0.42 0.0 0 0 411.34 205.58
  L 411.26 181.61
  A 0.42 0.42 0.0 0 1 411.69 181.18
  L 419.81 181.28
  A 0.42 0.42 0.0 0 0 420.23 180.86
  L 420.26 177.17
  A 0.42 0.42 0.0 0 0 419.84 176.75
  L 397.89 176.75
  A 0.42 0.42 0.0 0 0 397.47 177.16
  L 397.34 180.82
  A 0.42 0.42 0.0 0 0 397.76 181.25
  L 406.08 181.25"
/>
<path stroke="#d4e79c" vector-effect="non-scaling-stroke" d="
  M 429.93 188.75
  A 0.43 0.43 0.0 0 1 429.50 188.32
  L 429.50 177.18
  A 0.43 0.43 0.0 0 0 429.07 176.75
  L 424.93 176.75
  A 0.43 0.43 0.0 0 0 424.50 177.18
  L 424.50 205.57
  A 0.43 0.43 0.0 0 0 424.93 206.00
  L 429.07 206.00
  A 0.43 0.43 0.0 0 0 429.50 205.57
  L 429.50 193.43
  A 0.43 0.43 0.0 0 1 429.93 193.00
  L 443.34 193.00
  A 0.43 0.43 0.0 0 1 443.77 193.43
  L 443.71 205.57
  A 0.43 0.43 0.0 0 0 444.14 206.00
  L 448.07 206.00
  A 0.43 0.43 0.0 0 0 448.50 205.57
  L 448.50 177.18
  A 0.43 0.43 0.0 0 0 448.07 176.75
  L 444.22 176.75
  A 0.43 0.43 0.0 0 0 443.79 177.17
  L 443.65 188.33
  A 0.43 0.43 0.0 0 1 443.22 188.75
  L 429.93 188.75"
/>
<path stroke="#d4e79c" vector-effect="non-scaling-stroke" d="
  M 460.98 201.75
  A 0.48 0.48 0.0 0 1 460.50 201.27
  L 460.50 193.73
  A 0.48 0.48 0.0 0 1 460.98 193.25
  L 472.77 193.25
  A 0.48 0.48 0.0 0 0 473.25 192.77
  L 473.25 189.73
  A 0.48 0.48 0.0 0 0 472.77 189.25
  L 460.98 189.25
  A 0.48 0.48 0.0 0 1 460.50 188.77
  L 460.50 181.48
  A 0.48 0.48 0.0 0 1 460.98 181.00
  L 474.36 181.00
  A 0.48 0.48 0.0 0 0 474.84 180.51
  L 474.81 177.22
  A 0.48 0.48 0.0 0 0 474.33 176.75
  L 455.98 176.75
  A 0.48 0.48 0.0 0 0 455.50 177.23
  L 455.50 205.52
  A 0.48 0.48 0.0 0 0 455.98 206.00
  L 474.77 206.00
  A 0.48 0.48 0.0 0 0 475.25 205.52
  L 475.25 202.23
  A 0.48 0.48 0.0 0 0 474.77 201.75
  L 460.98 201.75"
/>
<path stroke="#d4e79c" vector-effect="non-scaling-stroke" d="
  M 508.81 176.75
  A 0.31 0.31 0.0 0 0 508.52 176.96
  L 500.46 199.56
  A 0.31 0.31 0.0 0 1 499.88 199.56
  L 491.95 176.96
  A 0.31 0.31 0.0 0 0 491.66 176.75
  L 487.56 176.75
  A 0.31 0.31 0.0 0 0 487.26 177.16
  L 497.27 205.79
  A 0.31 0.31 0.0 0 0 497.56 206.00
  L 502.81 206.00
  A 0.31 0.31 0.0 0 0 503.10 205.79
  L 513.11 177.16
  A 0.31 0.31 0.0 0 0 512.81 176.75
  L 508.81 176.75"
/>
<path stroke="#d4e79c" vector-effect="non-scaling-stroke" d="
  M 529.41 198.79
  A 0.42 0.42 0.0 0 1 529.80 199.06
  L 532.21 205.72
  A 0.42 0.42 0.0 0 0 532.60 206.00
  L 536.61 206.00
  A 0.42 0.42 0.0 0 0 537.01 205.44
  L 526.82 177.03
  A 0.42 0.42 0.0 0 0 526.42 176.75
  L 521.66 176.75
  A 0.42 0.42 0.0 0 0 521.26 177.03
  L 511.08 205.44
  A 0.42 0.42 0.0 0 0 511.48 206.00
  L 515.50 206.00
  A 0.42 0.42 0.0 0 0 515.90 205.72
  L 518.34 198.95
  A 0.42 0.42 0.0 0 1 518.74 198.67
  L 529.41 198.79"
/>
<path stroke="#d4e79c" vector-effect="non-scaling-stroke" d="
  M 547.75 201.75
  A 0.50 0.50 0.0 0 1 547.25 201.25
  L 547.25 177.25
  A 0.50 0.50 0.0 0 0 546.75 176.75
  L 542.75 176.75
  A 0.50 0.50 0.0 0 0 542.25 177.25
  L 542.25 205.50
  A 0.50 0.50 0.0 0 0 542.75 206.00
  L 560.00 206.00
  A 0.50 0.50 0.0 0 0 560.50 205.50
  L 560.50 202.25
  A 0.50 0.50 0.0 0 0 560.00 201.75
  L 547.75 201.75"
/>
<path stroke="#d4e79c" vector-effect="non-scaling-stroke" d="
  M 581.79 196.00
  C 581.61 204.86 569.56 203.98 569.50 195.48
  Q 569.44 186.45 569.53 177.33
  Q 569.53 176.75 568.95 176.75
  L 565.20 176.75
  Q 564.63 176.75 564.61 177.32
  Q 564.22 186.43 564.71 195.53
  C 565.08 202.53 567.59 205.87 574.75 206.19
  Q 586.62 206.71 586.83 195.52
  Q 586.99 186.46 587.03 177.33
  Q 587.04 176.75 586.45 176.75
  L 582.71 176.75
  Q 582.05 176.75 582.05 177.41
  Q 581.98 186.75 581.79 196.00"
/>
<path stroke="#d4e79c" vector-effect="non-scaling-stroke" d="
  M 598.50 193.73
  A 0.48 0.48 0.0 0 1 598.98 193.25
  L 610.77 193.25
  A 0.48 0.48 0.0 0 0 611.25 192.77
  L 611.25 189.73
  A 0.48 0.48 0.0 0 0 610.77 189.25
  L 598.98 189.25
  A 0.48 0.48 0.0 0 1 598.50 188.77
  L 598.50 181.48
  A 0.48 0.48 0.0 0 1 598.98 181.00
  L 612.34 181.00
  A 0.48 0.48 0.0 0 0 612.82 180.52
  L 612.82 177.23
  A 0.48 0.48 0.0 0 0 612.34 176.75
  L 593.98 176.75
  A 0.48 0.48 0.0 0 0 593.50 177.23
  L 593.50 205.52
  A 0.48 0.48 0.0 0 0 593.98 206.00
  L 612.77 206.00
  A 0.48 0.48 0.0 0 0 613.25 205.52
  L 613.25 202.23
  A 0.48 0.48 0.0 0 0 612.77 201.75
  L 598.98 201.75
  A 0.48 0.48 0.0 0 1 598.50 201.27
  L 598.50 193.73"
/>
<path stroke="#d4e79c" vector-effect="non-scaling-stroke" d="
  M 661.73 181.25
  A 0.52 0.52 0.0 0 1 662.25 181.77
  L 662.25 205.48
  A 0.52 0.52 0.0 0 0 662.77 206.00
  L 666.73 206.00
  A 0.52 0.52 0.0 0 0 667.25 205.48
  L 667.25 181.69
  A 0.52 0.52 0.0 0 1 667.78 181.17
  L 675.48 181.29
  A 0.52 0.52 0.0 0 0 676.01 180.76
  L 675.96 177.26
  A 0.52 0.52 0.0 0 0 675.44 176.75
  L 653.51 176.75
  A 0.52 0.52 0.0 0 0 652.99 177.27
  L 653.02 180.73
  A 0.52 0.52 0.0 0 0 653.54 181.25
  L 661.73 181.25"
/>
<path stroke="#d4e79c" vector-effect="non-scaling-stroke" d="
  M 716.00 194.00
  L 721.43 194.00
  Q 721.96 194.00 722.17 194.49
  L 726.83 205.41
  Q 727.08 206.00 727.73 206.00
  L 731.58 206.00
  Q 732.21 206.00 731.96 205.43
  L 726.86 193.94
  Q 726.63 193.41 727.12 193.10
  C 735.16 188.13 732.91 176.96 722.98 176.81
  Q 715.37 176.70 710.93 176.76
  Q 710.25 176.78 710.25 177.46
  L 710.25 205.25
  Q 710.25 206.00 711.00 206.00
  L 714.63 206.00
  Q 715.25 206.00 715.25 205.37
  L 715.25 194.75
  Q 715.25 194.00 716.00 194.00"
/>
<path stroke="#d4e79c" vector-effect="non-scaling-stroke" d="
  M 743.00 181.48
  A 0.48 0.48 0.0 0 1 743.48 181.00
  L 756.88 181.00
  A 0.48 0.48 0.0 0 0 757.36 180.52
  L 757.36 177.23
  A 0.48 0.48 0.0 0 0 756.88 176.75
  L 738.48 176.75
  A 0.48 0.48 0.0 0 0 738.00 177.23
  L 738.00 205.52
  A 0.48 0.48 0.0 0 0 738.48 206.00
  L 757.21 206.00
  A 0.48 0.48 0.0 0 0 757.69 205.50
  L 757.59 202.21
  A 0.48 0.48 0.0 0 0 757.11 201.75
  L 743.48 201.75
  A 0.48 0.48 0.0 0 1 743.00 201.27
  L 743.00 193.73
  A 0.48 0.48 0.0 0 1 743.48 193.25
  L 755.21 193.25
  A 0.48 0.48 0.0 0 0 755.69 192.75
  L 755.55 189.71
  A 0.48 0.48 0.0 0 0 755.07 189.25
  L 743.48 189.25
  A 0.48 0.48 0.0 0 1 743.00 188.77
  L 743.00 181.48"
/>
<path stroke="#d4e79c" vector-effect="non-scaling-stroke" d="
  M 690.79 180.72
  C 681.51 181.20 681.22 202.00 691.47 202.20
  C 702.07 202.40 702.68 180.10 690.79 180.72"
/>
<path stroke="#d4e79c" vector-effect="non-scaling-stroke" d="
  M 519.81 193.85
  A 0.30 0.30 0.0 0 0 520.09 194.24
  L 527.93 194.26
  A 0.30 0.30 0.0 0 0 528.22 193.86
  L 524.32 182.36
  A 0.30 0.30 0.0 0 0 523.75 182.36
  L 519.81 193.85"
/>
<path stroke="#d4e79c" vector-effect="non-scaling-stroke" d="
  M 715.24 181.11
  L 715.24 189.61
  A 0.62 0.62 0.0 0 0 715.86 190.23
  L 721.27 190.23
  A 5.71 4.69 0.0 0 0 726.98 185.54
  L 726.98 185.18
  A 5.71 4.69 -0.0 0 0 721.27 180.49
  L 715.86 180.49
  A 0.62 0.62 0.0 0 0 715.24 181.11"
/>
</g>
<path fill="#ffffff" d="
  M 112.81 0.00
  L 943.81 0.00
  Q 947.75 0.59 948.00 4.56
  L 948.00 233.05
  Q 947.16 236.49 943.94 237.00
  L 111.94 237.00
  C 48.44 232.55 1.74 183.38 0.00 119.93
  L 0.00 116.96
  C 2.00 53.33 48.92 3.70 112.81 0.00
  Z
  M 931.75 18.26
  A 0.26 0.26 0.0 0 0 931.49 18.00
  L 235.49 18.00
  A 0.26 0.26 0.0 0 0 235.23 18.26
  L 235.23 34.24
  A 0.26 0.26 0.0 0 0 235.49 34.50
  L 931.49 34.50
  A 0.26 0.26 0.0 0 0 931.75 34.24
  L 931.75 18.26
  Z
  M 214.24 101.02
  C 205.93 56.76 170.45 23.71 125.26 20.11
  Q 124.78 20.07 124.33 20.26
  Q 123.36 20.65 122.25 20.59
  Q 111.45 20.01 100.80 21.40
  C 95.28 22.12 89.74 24.49 84.22 26.19
  Q 76.46 28.58 72.16 30.82
  C 44.36 45.23 25.24 72.49 20.57 103.40
  C 18.77 115.30 20.74 128.98 22.41 140.68
  Q 23.19 146.16 24.63 150.34
  C 36.26 184.12 65.03 210.00 100.75 215.72
  C 102.39 215.98 103.89 215.71 105.40 215.88
  C 160.24 222.11 207.15 184.24 214.11 129.97
  C 215.16 121.73 215.63 108.43 214.24 101.02
  Z
  M 250.19 97.31
  C 259.47 104.07 272.03 103.27 282.22 107.99
  C 288.74 111.01 289.32 119.85 283.42 123.68
  C 273.82 129.90 257.94 127.70 253.76 115.65
  Q 253.62 115.25 253.19 115.25
  L 241.50 115.25
  Q 240.92 115.25 240.99 115.82
  C 243.93 141.58 290.19 144.23 298.96 121.66
  C 302.06 113.66 299.27 103.57 292.20 98.62
  C 286.44 94.60 275.34 92.87 267.52 90.90
  C 260.52 89.12 254.65 86.52 256.79 78.32
  C 259.94 66.28 285.03 67.77 286.52 82.04
  Q 286.57 82.50 287.03 82.50
  L 298.74 82.50
  Q 299.27 82.50 299.24 81.97
  C 297.90 57.08 259.95 54.19 247.36 69.85
  C 241.15 77.58 241.39 90.90 250.19 97.31
  Z
  M 571.61 95.80
  Q 579.51 91.98 584.64 85.22
  C 588.85 79.66 589.73 72.37 584.82 67.20
  C 577.10 59.09 561.88 57.78 552.75 63.99
  C 540.27 72.48 546.61 85.25 554.53 93.89
  Q 554.91 94.31 554.41 94.58
  C 545.09 99.64 536.18 106.05 536.56 117.76
  C 536.87 127.26 542.95 134.05 552.28 135.71
  Q 569.31 138.74 583.17 128.47
  Q 583.61 128.14 583.98 128.56
  L 590.05 135.60
  Q 590.40 136.00 590.93 136.00
  L 604.25 136.00
  A 0.29 0.29 0.0 0 0 604.47 135.52
  L 591.37 120.20
  Q 591.05 119.83 591.32 119.43
  C 596.19 112.05 601.40 103.84 603.23 95.08
  Q 603.35 94.50 602.76 94.50
  L 591.28 94.50
  Q 590.85 94.50 590.80 94.92
  Q 589.61 103.90 585.35 111.84
  Q 585.03 112.44 584.59 111.92
  L 571.44 96.61
  Q 570.99 96.10 571.61 95.80
  Z
  M 645.37 70.13
  Q 642.43 73.80 641.93 76.77
  C 637.88 100.86 659.55 102.20 675.96 106.41
  C 689.93 110.00 688.34 123.66 675.31 126.31
  C 665.85 128.24 655.45 125.84 652.10 115.72
  Q 651.94 115.25 651.45 115.25
  L 639.77 115.25
  Q 639.17 115.25 639.26 115.85
  C 643.50 144.14 696.77 144.06 698.25 115.88
  C 699.89 84.38 649.13 99.41 654.99 78.24
  C 658.27 66.40 683.26 67.68 684.70 82.00
  A 0.56 0.55 87.1 0 0 685.25 82.50
  L 696.99 82.50
  Q 697.45 82.50 697.43 82.04
  C 696.42 56.94 658.13 54.24 645.37 70.13
  Z
  M 751.59 61.38
  C 726.19 54.89 709.13 72.56 708.64 96.85
  C 708.27 115.37 715.18 132.43 734.73 136.35
  C 752.51 139.92 768.73 131.01 773.50 112.99
  C 778.53 93.97 774.11 67.14 751.59 61.38
  Z
  M 924.16 82.05
  C 922.71 52.77 869.83 53.30 868.28 81.00
  C 866.57 111.50 911.75 97.79 912.47 115.58
  C 913.07 130.41 883.12 130.92 879.04 115.85
  Q 878.87 115.25 878.25 115.25
  L 866.48 115.25
  Q 865.85 115.25 865.95 115.86
  C 870.39 143.35 920.97 144.17 924.93 117.86
  C 928.14 96.55 905.89 94.07 891.52 90.66
  Q 886.43 89.45 884.05 87.45
  C 879.00 83.19 881.49 74.35 887.24 71.98
  C 896.03 68.35 910.25 70.30 911.53 82.04
  Q 911.58 82.50 912.04 82.50
  L 923.73 82.50
  Q 924.18 82.50 924.16 82.05
  Z
  M 335.31 92.67
  L 317.52 61.70
  A 0.90 0.90 0.0 0 0 316.74 61.25
  L 304.26 61.25
  Q 303.70 61.25 303.98 61.73
  Q 316.08 82.12 328.27 102.49
  Q 329.31 104.24 329.36 106.27
  Q 329.69 120.77 329.39 135.37
  Q 329.38 136.00 330.01 136.00
  L 341.50 136.00
  A 0.50 0.50 0.0 0 0 342.00 135.50
  L 342.00 104.79
  Q 342.00 104.26 342.27 103.81
  L 367.28 61.76
  Q 367.58 61.25 366.99 61.25
  L 354.42 61.25
  Q 353.87 61.25 353.60 61.73
  L 336.13 92.67
  Q 335.72 93.39 335.31 92.67
  Z
  M 390.62 125.00
  A 0.37 0.37 0.0 0 1 390.25 124.63
  L 390.25 103.87
  A 0.37 0.37 0.0 0 1 390.62 103.50
  L 422.63 103.50
  A 0.37 0.37 0.0 0 0 423.00 103.13
  L 423.00 93.37
  A 0.37 0.37 0.0 0 0 422.63 93.00
  L 390.87 93.00
  A 0.37 0.37 0.0 0 1 390.50 92.63
  L 390.50 72.37
  A 0.37 0.37 0.0 0 1 390.87 72.00
  L 426.88 72.00
  A 0.37 0.37 0.0 0 0 427.25 71.63
  L 427.25 61.62
  A 0.37 0.37 0.0 0 0 426.88 61.25
  L 378.22 61.25
  A 0.37 0.37 0.0 0 0 377.85 61.62
  L 377.73 135.63
  A 0.37 0.37 0.0 0 0 378.10 136.00
  L 427.63 136.00
  A 0.37 0.37 0.0 0 0 428.00 135.63
  L 428.00 125.37
  A 0.37 0.37 0.0 0 0 427.63 125.00
  L 390.62 125.00
  Z
  M 467.70 135.65
  C 493.50 134.74 504.62 115.52 501.84 91.71
  C 498.16 60.10 469.24 59.95 443.72 61.54
  Q 443.25 61.57 443.25 62.04
  L 443.25 135.29
  Q 443.25 135.95 443.91 135.97
  Q 452.57 136.19 467.70 135.65
  Z
  M 801.91 136.00
  A 0.30 0.30 0.0 0 0 802.21 135.70
  L 802.38 82.05
  A 0.30 0.30 0.0 0 1 802.92 81.88
  L 839.93 135.87
  A 0.30 0.30 0.0 0 0 840.18 136.00
  L 850.95 136.00
  A 0.30 0.30 0.0 0 0 851.25 135.70
  L 851.25 61.55
  A 0.30 0.30 0.0 0 0 850.95 61.25
  L 839.05 61.25
  A 0.30 0.30 0.0 0 0 838.75 61.55
  L 838.75 113.65
  A 0.30 0.30 0.0 0 1 838.20 113.82
  L 802.23 61.38
  A 0.30 0.30 0.0 0 0 801.98 61.25
  L 790.05 61.25
  A 0.30 0.30 0.0 0 0 789.75 61.55
  L 789.75 135.70
  A 0.30 0.30 0.0 0 0 790.05 136.00
  L 801.91 136.00
  Z
  M 931.75 163.76
  A 0.26 0.26 0.0 0 0 931.49 163.50
  L 235.51 163.50
  A 0.26 0.26 0.0 0 0 235.25 163.76
  L 235.25 220.24
  A 0.26 0.26 0.0 0 0 235.51 220.50
  L 931.49 220.50
  A 0.26 0.26 0.0 0 0 931.75 220.24
  L 931.75 163.76
  Z"
/>
<rect fill="#a8ce39" x="235.23" y="18.00" width="696.52" height="16.50" rx="0.26"/>
<path fill="#a8ce39" d="
  M 125.26 20.11
  C 170.45 23.71 205.93 56.76 214.24 101.02
  C 215.63 108.43 215.16 121.73 214.11 129.97
  C 207.15 184.24 160.24 222.11 105.40 215.88
  C 103.89 215.71 102.39 215.98 100.75 215.72
  C 65.03 210.00 36.26 184.12 24.63 150.34
  Q 23.19 146.16 22.41 140.68
  C 20.74 128.98 18.77 115.30 20.57 103.40
  C 25.24 72.49 44.36 45.23 72.16 30.82
  Q 76.46 28.58 84.22 26.19
  C 89.74 24.49 95.28 22.12 100.80 21.40
  Q 111.45 20.01 122.25 20.59
  Q 123.36 20.65 124.33 20.26
  Q 124.78 20.07 125.26 20.11
  Z
  M 104.78 147.07
  L 96.81 150.76
  Q 96.23 151.02 95.87 150.50
  Q 85.58 135.92 68.41 130.88
  A 0.85 0.85 0.0 0 0 67.41 132.07
  Q 67.87 132.99 67.48 134.05
  Q 67.32 134.48 67.41 134.93
  C 69.45 145.00 75.13 150.44 84.39 154.56
  A 0.40 0.39 -38.4 0 1 84.30 155.31
  Q 64.19 159.19 43.77 157.86
  A 1.22 1.22 0.0 0 0 42.48 159.11
  L 42.55 161.98
  Q 42.57 162.71 43.29 162.82
  Q 45.25 163.12 47.25 162.99
  Q 59.89 162.19 72.24 161.64
  A 1.43 1.42 -5.4 0 1 73.71 162.85
  C 75.79 176.61 87.71 187.71 102.26 182.45
  Q 103.46 182.01 103.10 180.79
  C 99.59 169.08 91.55 164.33 81.12 159.79
  Q 80.19 159.39 81.17 159.13
  L 96.46 155.16
  A 0.65 0.64 72.8 0 1 97.23 155.57
  C 98.79 159.87 100.48 164.90 103.50 168.41
  C 109.85 175.79 117.91 178.39 127.20 173.77
  C 129.91 172.42 129.75 170.75 127.63 168.92
  C 120.02 162.37 113.03 154.72 102.44 153.31
  A 0.51 0.51 0.0 0 1 102.36 152.31
  Q 110.46 149.76 117.37 144.81
  A 0.75 0.75 0.0 0 1 118.55 145.29
  Q 120.27 154.80 129.46 158.57
  C 133.18 160.09 147.84 163.68 150.78 160.36
  A 1.14 1.13 -43.3 0 0 150.83 158.91
  C 144.11 150.27 136.59 143.36 125.22 142.55
  Q 122.93 142.38 124.77 141.01
  L 137.62 131.39
  A 0.60 0.60 0.0 0 1 138.51 131.58
  Q 141.88 137.65 147.21 141.84
  C 156.60 149.23 168.40 146.86 174.25 136.20
  A 0.72 0.72 0.0 0 0 173.56 135.13
  C 167.27 135.65 161.16 135.10 155.76 131.62
  Q 150.57 128.28 144.71 126.43
  A 0.66 0.66 0.0 0 1 144.56 125.24
  Q 149.22 122.31 152.16 117.66
  A 1.58 1.58 0.0 0 1 154.35 117.17
  C 166.45 124.94 177.40 128.34 189.63 118.83
  A 1.53 1.52 43.5 0 0 189.56 116.37
  Q 175.26 106.45 159.87 113.38
  C 159.09 113.74 157.89 114.79 156.73 114.45
  A 0.84 0.83 23.9 0 1 156.25 113.22
  Q 159.72 107.47 161.45 100.97
  A 1.35 1.34 -70.5 0 1 163.29 100.09
  C 173.04 104.44 185.79 104.93 192.51 95.15
  A 1.50 1.50 0.0 0 0 191.64 92.85
  Q 180.63 90.03 170.09 92.07
  C 167.43 92.59 165.87 94.45 163.88 96.10
  A 0.92 0.92 0.0 0 1 162.37 95.34
  Q 162.84 86.94 162.25 78.50
  C 161.37 66.15 158.00 58.36 146.36 54.10
  A 1.14 1.13 -74.4 0 0 144.86 54.95
  Q 143.86 59.87 145.20 64.71
  Q 145.31 65.13 145.21 65.55
  C 144.21 69.65 148.38 74.32 150.56 77.55
  C 152.91 81.03 156.46 83.29 159.61 86.13
  Q 160.03 86.50 159.95 87.06
  L 158.78 94.63
  A 1.35 1.35 0.0 0 1 156.93 95.67
  C 147.12 91.60 137.51 84.86 126.36 89.58
  Q 125.85 89.80 126.30 90.13
  Q 135.01 96.38 144.13 101.97
  C 148.28 104.52 152.00 104.65 155.50 101.35
  A 0.87 0.87 0.0 0 1 156.89 102.33
  L 152.50 112.39
  Q 152.23 113.02 151.83 112.47
  C 144.18 102.08 131.99 101.52 120.91 106.50
  A 0.32 0.32 0.0 0 0 120.84 107.04
  Q 127.78 112.82 136.02 116.61
  C 139.63 118.27 143.23 117.77 147.08 117.74
  A 0.59 0.59 0.0 0 1 147.36 118.86
  Q 142.40 121.49 139.07 125.99
  A 1.55 1.54 43.6 0 1 136.63 126.05
  C 128.87 116.55 114.45 114.50 102.99 115.49
  A 0.32 0.31 -28.6 0 0 102.82 116.05
  C 106.24 118.69 108.78 121.90 111.05 123.95
  Q 119.04 131.17 129.90 132.79
  Q 130.62 132.90 130.01 133.29
  L 118.65 140.63
  A 1.32 1.32 0.0 0 1 116.93 140.39
  C 107.84 129.99 98.06 124.29 83.62 125.79
  Q 82.21 125.93 82.98 127.12
  C 88.26 135.21 94.95 143.27 104.73 146.31
  Q 105.74 146.63 104.78 147.07
  Z"
/>
<path fill="#ffffff" d="
  M 104.73 146.31
  C 94.95 143.27 88.26 135.21 82.98 127.12
  Q 82.21 125.93 83.62 125.79
  C 98.06 124.29 107.84 129.99 116.93 140.39
  A 1.32 1.32 0.0 0 0 118.65 140.63
  L 130.01 133.29
  Q 130.62 132.90 129.90 132.79
  Q 119.04 131.17 111.05 123.95
  C 108.78 121.90 106.24 118.69 102.82 116.05
  A 0.32 0.31 -28.6 0 1 102.99 115.49
  C 114.45 114.50 128.87 116.55 136.63 126.05
  A 1.55 1.54 43.6 0 0 139.07 125.99
  Q 142.40 121.49 147.36 118.86
  A 0.59 0.59 0.0 0 0 147.08 117.74
  C 143.23 117.77 139.63 118.27 136.02 116.61
  Q 127.78 112.82 120.84 107.04
  A 0.32 0.32 0.0 0 1 120.91 106.50
  C 131.99 101.52 144.18 102.08 151.83 112.47
  Q 152.23 113.02 152.50 112.39
  L 156.89 102.33
  A 0.87 0.87 0.0 0 0 155.50 101.35
  C 152.00 104.65 148.28 104.52 144.13 101.97
  Q 135.01 96.38 126.30 90.13
  Q 125.85 89.80 126.36 89.58
  C 137.51 84.86 147.12 91.60 156.93 95.67
  A 1.35 1.35 0.0 0 0 158.78 94.63
  L 159.95 87.06
  Q 160.03 86.50 159.61 86.13
  C 156.46 83.29 152.91 81.03 150.56 77.55
  C 148.38 74.32 144.21 69.65 145.21 65.55
  Q 145.31 65.13 145.20 64.71
  Q 143.86 59.87 144.86 54.95
  A 1.14 1.13 -74.4 0 1 146.36 54.10
  C 158.00 58.36 161.37 66.15 162.25 78.50
  Q 162.84 86.94 162.37 95.34
  A 0.92 0.92 0.0 0 0 163.88 96.10
  C 165.87 94.45 167.43 92.59 170.09 92.07
  Q 180.63 90.03 191.64 92.85
  A 1.50 1.50 0.0 0 1 192.51 95.15
  C 185.79 104.93 173.04 104.44 163.29 100.09
  A 1.35 1.34 -70.5 0 0 161.45 100.97
  Q 159.72 107.47 156.25 113.22
  A 0.84 0.83 23.9 0 0 156.73 114.45
  C 157.89 114.79 159.09 113.74 159.87 113.38
  Q 175.26 106.45 189.56 116.37
  A 1.53 1.52 43.5 0 1 189.63 118.83
  C 177.40 128.34 166.45 124.94 154.35 117.17
  A 1.58 1.58 0.0 0 0 152.16 117.66
  Q 149.22 122.31 144.56 125.24
  A 0.66 0.66 0.0 0 0 144.71 126.43
  Q 150.57 128.28 155.76 131.62
  C 161.16 135.10 167.27 135.65 173.56 135.13
  A 0.72 0.72 0.0 0 1 174.25 136.20
  C 168.40 146.86 156.60 149.23 147.21 141.84
  Q 141.88 137.65 138.51 131.58
  A 0.60 0.60 0.0 0 0 137.62 131.39
  L 124.77 141.01
  Q 122.93 142.38 125.22 142.55
  C 136.59 143.36 144.11 150.27 150.83 158.91
  A 1.14 1.13 -43.3 0 1 150.78 160.36
  C 147.84 163.68 133.18 160.09 129.46 158.57
  Q 120.27 154.80 118.55 145.29
  A 0.75 0.75 0.0 0 0 117.37 144.81
  Q 110.46 149.76 102.36 152.31
  A 0.51 0.51 0.0 0 0 102.44 153.31
  C 113.03 154.72 120.02 162.37 127.63 168.92
  C 129.75 170.75 129.91 172.42 127.20 173.77
  C 117.91 178.39 109.85 175.79 103.50 168.41
  C 100.48 164.90 98.79 159.87 97.23 155.57
  A 0.65 0.64 72.8 0 0 96.46 155.16
  L 81.17 159.13
  Q 80.19 159.39 81.12 159.79
  C 91.55 164.33 99.59 169.08 103.10 180.79
  Q 103.46 182.01 102.26 182.45
  C 87.71 187.71 75.79 176.61 73.71 162.85
  A 1.43 1.42 -5.4 0 0 72.24 161.64
  Q 59.89 162.19 47.25 162.99
  Q 45.25 163.12 43.29 162.82
  Q 42.57 162.71 42.55 161.98
  L 42.48 159.11
  A 1.22 1.22 0.0 0 1 43.77 157.86
  Q 64.19 159.19 84.30 155.31
  A 0.40 0.39 -38.4 0 0 84.39 154.56
  C 75.13 150.44 69.45 145.00 67.41 134.93
  Q 67.32 134.48 67.48 134.05
  Q 67.87 132.99 67.41 132.07
  A 0.85 0.85 0.0 0 1 68.41 130.88
  Q 85.58 135.92 95.87 150.50
  Q 96.23 151.02 96.81 150.76
  L 104.78 147.07
  Q 105.74 146.63 104.73 146.31
  Z"
/>
<path fill="#000000" d="
  M 250.19 97.31
  C 241.39 90.90 241.15 77.58 247.36 69.85
  C 259.95 54.19 297.90 57.08 299.24 81.97
  Q 299.27 82.50 298.74 82.50
  L 287.03 82.50
  Q 286.57 82.50 286.52 82.04
  C 285.03 67.77 259.94 66.28 256.79 78.32
  C 254.65 86.52 260.52 89.12 267.52 90.90
  C 275.34 92.87 286.44 94.60 292.20 98.62
  C 299.27 103.57 302.06 113.66 298.96 121.66
  C 290.19 144.23 243.93 141.58 240.99 115.82
  Q 240.92 115.25 241.50 115.25
  L 253.19 115.25
  Q 253.62 115.25 253.76 115.65
  C 257.94 127.70 273.82 129.90 283.42 123.68
  C 289.32 119.85 288.74 111.01 282.22 107.99
  C 272.03 103.27 259.47 104.07 250.19 97.31
  Z"
/>
<path fill="#000000" d="
  M 571.44 96.61
  L 584.59 111.92
  Q 585.03 112.44 585.35 111.84
  Q 589.61 103.90 590.80 94.92
  Q 590.85 94.50 591.28 94.50
  L 602.76 94.50
  Q 603.35 94.50 603.23 95.08
  C 601.40 103.84 596.19 112.05 591.32 119.43
  Q 591.05 119.83 591.37 120.20
  L 604.47 135.52
  A 0.29 0.29 0.0 0 1 604.25 136.00
  L 590.93 136.00
  Q 590.40 136.00 590.05 135.60
  L 583.98 128.56
  Q 583.61 128.14 583.17 128.47
  Q 569.31 138.74 552.28 135.71
  C 542.95 134.05 536.87 127.26 536.56 117.76
  C 536.18 106.05 545.09 99.64 554.41 94.58
  Q 554.91 94.31 554.53 93.89
  C 546.61 85.25 540.27 72.48 552.75 63.99
  C 561.88 57.78 577.10 59.09 584.82 67.20
  C 589.73 72.37 588.85 79.66 584.64 85.22
  Q 579.51 91.98 571.61 95.80
  Q 570.99 96.10 571.44 96.61
  Z
  M 575.73 72.03
  C 570.00 63.87 553.90 69.10 559.14 80.52
  C 560.40 83.26 562.95 86.73 565.43 89.19
  Q 565.75 89.50 566.14 89.30
  C 572.23 86.15 580.58 78.95 575.73 72.03
  Z
  M 560.62 101.94
  C 556.04 104.59 551.08 108.92 550.56 114.66
  C 550.00 120.77 554.73 125.86 560.77 126.48
  Q 569.71 127.41 576.95 120.96
  Q 577.33 120.62 577.00 120.24
  L 561.41 102.08
  Q 561.07 101.68 560.62 101.94
  Z"
/>
<path fill="#000000" d="
  M 645.37 70.13
  C 658.13 54.24 696.42 56.94 697.43 82.04
  Q 697.45 82.50 696.99 82.50
  L 685.25 82.50
  A 0.56 0.55 87.1 0 1 684.70 82.00
  C 683.26 67.68 658.27 66.40 654.99 78.24
  C 649.13 99.41 699.89 84.38 698.25 115.88
  C 696.77 144.06 643.50 144.14 639.26 115.85
  Q 639.17 115.25 639.77 115.25
  L 651.45 115.25
  Q 651.94 115.25 652.10 115.72
  C 655.45 125.84 665.85 128.24 675.31 126.31
  C 688.34 123.66 689.93 110.00 675.96 106.41
  C 659.55 102.20 637.88 100.86 641.93 76.77
  Q 642.43 73.80 645.37 70.13
  Z"
/>
<path fill="#000000" d="
  M 708.64 96.85
  C 709.13 72.56 726.19 54.89 751.59 61.38
  C 774.11 67.14 778.53 93.97 773.50 112.99
  C 768.73 131.01 752.51 139.92 734.73 136.35
  C 715.18 132.43 708.27 115.37 708.64 96.85
  Z
  M 746.30 71.15
  C 735.66 68.94 726.58 74.93 724.00 85.25
  C 720.37 99.80 720.79 128.02 743.66 126.24
  Q 758.10 125.11 760.82 109.21
  C 762.89 97.08 762.73 74.57 746.30 71.15
  Z"
/>
<path fill="#000000" d="
  M 868.28 81.00
  C 869.83 53.30 922.71 52.77 924.16 82.05
  Q 924.18 82.50 923.73 82.50
  L 912.04 82.50
  Q 911.58 82.50 911.53 82.04
  C 910.25 70.30 896.03 68.35 887.24 71.98
  C 881.49 74.35 879.00 83.19 884.05 87.45
  Q 886.43 89.45 891.52 90.66
  C 905.89 94.07 928.14 96.55 924.93 117.86
  C 920.97 144.17 870.39 143.35 865.95 115.86
  Q 865.85 115.25 866.48 115.25
  L 878.25 115.25
  Q 878.87 115.25 879.04 115.85
  C 883.12 130.92 913.07 130.41 912.47 115.58
  C 911.75 97.79 866.57 111.50 868.28 81.00
  Z"
/>
<path fill="#000000" d="
  M 336.13 92.67
  L 353.60 61.73
  Q 353.87 61.25 354.42 61.25
  L 366.99 61.25
  Q 367.58 61.25 367.28 61.76
  L 342.27 103.81
  Q 342.00 104.26 342.00 104.79
  L 342.00 135.50
  A 0.50 0.50 0.0 0 1 341.50 136.00
  L 330.01 136.00
  Q 329.38 136.00 329.39 135.37
  Q 329.69 120.77 329.36 106.27
  Q 329.31 104.24 328.27 102.49
  Q 316.08 82.12 303.98 61.73
  Q 303.70 61.25 304.26 61.25
  L 316.74 61.25
  A 0.90 0.90 0.0 0 1 317.52 61.70
  L 335.31 92.67
  Q 335.72 93.39 336.13 92.67
  Z"
/>
<path fill="#000000" d="
  M 390.62 125.00
  L 427.63 125.00
  A 0.37 0.37 0.0 0 1 428.00 125.37
  L 428.00 135.63
  A 0.37 0.37 0.0 0 1 427.63 136.00
  L 378.10 136.00
  A 0.37 0.37 0.0 0 1 377.73 135.63
  L 377.85 61.62
  A 0.37 0.37 0.0 0 1 378.22 61.25
  L 426.88 61.25
  A 0.37 0.37 0.0 0 1 427.25 61.62
  L 427.25 71.63
  A 0.37 0.37 0.0 0 1 426.88 72.00
  L 390.87 72.00
  A 0.37 0.37 0.0 0 0 390.50 72.37
  L 390.50 92.63
  A 0.37 0.37 0.0 0 0 390.87 93.00
  L 422.63 93.00
  A 0.37 0.37 0.0 0 1 423.00 93.37
  L 423.00 103.13
  A 0.37 0.37 0.0 0 1 422.63 103.50
  L 390.62 103.50
  A 0.37 0.37 0.0 0 0 390.25 103.87
  L 390.25 124.63
  A 0.37 0.37 0.0 0 0 390.62 125.00
  Z"
/>
<path fill="#000000" d="
  M 501.84 91.71
  C 504.62 115.52 493.50 134.74 467.70 135.65
  Q 452.57 136.19 443.91 135.97
  Q 443.25 135.95 443.25 135.29
  L 443.25 62.04
  Q 443.25 61.57 443.72 61.54
  C 469.24 59.95 498.16 60.10 501.84 91.71
  Z
  M 456.08 72.15
  L 455.90 124.81
  A 0.62 0.62 0.0 0 0 456.52 125.43
  L 465.64 125.47
  A 23.26 23.22 -89.8 0 0 488.94 102.29
  L 488.96 94.91
  A 23.26 23.22 -89.8 0 0 465.82 71.57
  L 456.70 71.53
  A 0.62 0.62 0.0 0 0 456.08 72.15
  Z"
/>
<path fill="#000000" d="
  M 801.91 136.00
  L 790.05 136.00
  A 0.30 0.30 0.0 0 1 789.75 135.70
  L 789.75 61.55
  A 0.30 0.30 0.0 0 1 790.05 61.25
  L 801.98 61.25
  A 0.30 0.30 0.0 0 1 802.23 61.38
  L 838.20 113.82
  A 0.30 0.30 0.0 0 0 838.75 113.65
  L 838.75 61.55
  A 0.30 0.30 0.0 0 1 839.05 61.25
  L 850.95 61.25
  A 0.30 0.30 0.0 0 1 851.25 61.55
  L 851.25 135.70
  A 0.30 0.30 0.0 0 1 850.95 136.00
  L 840.18 136.00
  A 0.30 0.30 0.0 0 1 839.93 135.87
  L 802.92 81.88
  A 0.30 0.30 0.0 0 0 802.38 82.05
  L 802.21 135.70
  A 0.30 0.30 0.0 0 1 801.91 136.00
  Z"
/>
<path fill="#ffffff" d="
  M 559.14 80.52
  C 553.90 69.10 570.00 63.87 575.73 72.03
  C 580.58 78.95 572.23 86.15 566.14 89.30
  Q 565.75 89.50 565.43 89.19
  C 562.95 86.73 560.40 83.26 559.14 80.52
  Z"
/>
<path fill="#ffffff" d="
  M 724.00 85.25
  C 726.58 74.93 735.66 68.94 746.30 71.15
  C 762.73 74.57 762.89 97.08 760.82 109.21
  Q 758.10 125.11 743.66 126.24
  C 720.79 128.02 720.37 99.80 724.00 85.25
  Z"
/>
<path fill="#ffffff" d="
  M 456.08 72.15
  A 0.62 0.62 0.0 0 1 456.70 71.53
  L 465.82 71.57
  A 23.26 23.22 -89.8 0 1 488.96 94.91
  L 488.94 102.29
  A 23.26 23.22 -89.8 0 1 465.64 125.47
  L 456.52 125.43
  A 0.62 0.62 0.0 0 1 455.90 124.81
  L 456.08 72.15
  Z"
/>
<path fill="#ffffff" d="
  M 550.56 114.66
  C 551.08 108.92 556.04 104.59 560.62 101.94
  Q 561.07 101.68 561.41 102.08
  L 577.00 120.24
  Q 577.33 120.62 576.95 120.96
  Q 569.71 127.41 560.77 126.48
  C 554.73 125.86 550.00 120.77 550.56 114.66
  Z"
/>
<path fill="#a8ce39" d="
  M 931.75 220.24
  A 0.26 0.26 0.0 0 1 931.49 220.50
  L 235.51 220.50
  A 0.26 0.26 0.0 0 1 235.25 220.24
  L 235.25 163.76
  A 0.26 0.26 0.0 0 1 235.51 163.50
  L 931.49 163.50
  A 0.26 0.26 0.0 0 1 931.75 163.76
  L 931.75 220.24
  Z
  M 631.87 178.46
  C 627.16 181.02 627.08 187.51 630.40 190.40
  C 633.42 193.04 639.82 193.69 643.26 194.98
  C 650.64 197.75 638.30 208.31 632.18 198.41
  Q 631.93 198.00 631.45 198.00
  L 627.94 198.00
  Q 627.28 198.00 627.42 198.65
  C 629.61 208.45 647.59 209.05 650.01 199.72
  C 653.54 186.08 631.23 191.59 633.41 183.70
  C 634.90 178.33 643.24 179.82 645.08 184.40
  Q 645.32 185.00 645.96 185.00
  L 649.31 185.00
  Q 649.99 185.00 649.91 184.33
  C 648.89 175.61 638.12 175.06 631.87 178.46
  Z
  M 704.49 188.38
  A 11.73 11.73 0.0 0 0 692.76 176.65
  L 690.62 176.65
  A 11.73 11.73 0.0 0 0 678.89 188.38
  L 678.89 194.38
  A 11.73 11.73 0.0 0 0 690.62 206.11
  L 692.76 206.11
  A 11.73 11.73 0.0 0 0 704.49 194.38
  L 704.49 188.38
  Z
  M 406.08 181.25
  A 0.42 0.42 0.0 0 1 406.50 181.67
  L 406.50 205.58
  A 0.42 0.42 0.0 0 0 406.92 206.00
  L 410.92 206.00
  A 0.42 0.42 0.0 0 0 411.34 205.58
  L 411.26 181.61
  A 0.42 0.42 0.0 0 1 411.69 181.18
  L 419.81 181.28
  A 0.42 0.42 0.0 0 0 420.23 180.86
  L 420.26 177.17
  A 0.42 0.42 0.0 0 0 419.84 176.75
  L 397.89 176.75
  A 0.42 0.42 0.0 0 0 397.47 177.16
  L 397.34 180.82
  A 0.42 0.42 0.0 0 0 397.76 181.25
  L 406.08 181.25
  Z
  M 429.93 188.75
  A 0.43 0.43 0.0 0 1 429.50 188.32
  L 429.50 177.18
  A 0.43 0.43 0.0 0 0 429.07 176.75
  L 424.93 176.75
  A 0.43 0.43 0.0 0 0 424.50 177.18
  L 424.50 205.57
  A 0.43 0.43 0.0 0 0 424.93 206.00
  L 429.07 206.00
  A 0.43 0.43 0.0 0 0 429.50 205.57
  L 429.50 193.43
  A 0.43 0.43 0.0 0 1 429.93 193.00
  L 443.34 193.00
  A 0.43 0.43 0.0 0 1 443.77 193.43
  L 443.71 205.57
  A 0.43 0.43 0.0 0 0 444.14 206.00
  L 448.07 206.00
  A 0.43 0.43 0.0 0 0 448.50 205.57
  L 448.50 177.18
  A 0.43 0.43 0.0 0 0 448.07 176.75
  L 444.22 176.75
  A 0.43 0.43 0.0 0 0 443.79 177.17
  L 443.65 188.33
  A 0.43 0.43 0.0 0 1 443.22 188.75
  L 429.93 188.75
  Z
  M 460.98 201.75
  A 0.48 0.48 0.0 0 1 460.50 201.27
  L 460.50 193.73
  A 0.48 0.48 0.0 0 1 460.98 193.25
  L 472.77 193.25
  A 0.48 0.48 0.0 0 0 473.25 192.77
  L 473.25 189.73
  A 0.48 0.48 0.0 0 0 472.77 189.25
  L 460.98 189.25
  A 0.48 0.48 0.0 0 1 460.50 188.77
  L 460.50 181.48
  A 0.48 0.48 0.0 0 1 460.98 181.00
  L 474.36 181.00
  A 0.48 0.48 0.0 0 0 474.84 180.51
  L 474.81 177.22
  A 0.48 0.48 0.0 0 0 474.33 176.75
  L 455.98 176.75
  A 0.48 0.48 0.0 0 0 455.50 177.23
  L 455.50 205.52
  A 0.48 0.48 0.0 0 0 455.98 206.00
  L 474.77 206.00
  A 0.48 0.48 0.0 0 0 475.25 205.52
  L 475.25 202.23
  A 0.48 0.48 0.0 0 0 474.77 201.75
  L 460.98 201.75
  Z
  M 508.81 176.75
  A 0.31 0.31 0.0 0 0 508.52 176.96
  L 500.46 199.56
  A 0.31 0.31 0.0 0 1 499.88 199.56
  L 491.95 176.96
  A 0.31 0.31 0.0 0 0 491.66 176.75
  L 487.56 176.75
  A 0.31 0.31 0.0 0 0 487.26 177.16
  L 497.27 205.79
  A 0.31 0.31 0.0 0 0 497.56 206.00
  L 502.81 206.00
  A 0.31 0.31 0.0 0 0 503.10 205.79
  L 513.11 177.16
  A 0.31 0.31 0.0 0 0 512.81 176.75
  L 508.81 176.75
  Z
  M 529.41 198.79
  A 0.42 0.42 0.0 0 1 529.80 199.06
  L 532.21 205.72
  A 0.42 0.42 0.0 0 0 532.60 206.00
  L 536.61 206.00
  A 0.42 0.42 0.0 0 0 537.01 205.44
  L 526.82 177.03
  A 0.42 0.42 0.0 0 0 526.42 176.75
  L 521.66 176.75
  A 0.42 0.42 0.0 0 0 521.26 177.03
  L 511.08 205.44
  A 0.42 0.42 0.0 0 0 511.48 206.00
  L 515.50 206.00
  A 0.42 0.42 0.0 0 0 515.90 205.72
  L 518.34 198.95
  A 0.42 0.42 0.0 0 1 518.74 198.67
  L 529.41 198.79
  Z
  M 547.75 201.75
  A 0.50 0.50 0.0 0 1 547.25 201.25
  L 547.25 177.25
  A 0.50 0.50 0.0 0 0 546.75 176.75
  L 542.75 176.75
  A 0.50 0.50 0.0 0 0 542.25 177.25
  L 542.25 205.50
  A 0.50 0.50 0.0 0 0 542.75 206.00
  L 560.00 206.00
  A 0.50 0.50 0.0 0 0 560.50 205.50
  L 560.50 202.25
  A 0.50 0.50 0.0 0 0 560.00 201.75
  L 547.75 201.75
  Z
  M 581.79 196.00
  C 581.61 204.86 569.56 203.98 569.50 195.48
  Q 569.44 186.45 569.53 177.33
  Q 569.53 176.75 568.95 176.75
  L 565.20 176.75
  Q 564.63 176.75 564.61 177.32
  Q 564.22 186.43 564.71 195.53
  C 565.08 202.53 567.59 205.87 574.75 206.19
  Q 586.62 206.71 586.83 195.52
  Q 586.99 186.46 587.03 177.33
  Q 587.04 176.75 586.45 176.75
  L 582.71 176.75
  Q 582.05 176.75 582.05 177.41
  Q 581.98 186.75 581.79 196.00
  Z
  M 598.50 193.73
  A 0.48 0.48 0.0 0 1 598.98 193.25
  L 610.77 193.25
  A 0.48 0.48 0.0 0 0 611.25 192.77
  L 611.25 189.73
  A 0.48 0.48 0.0 0 0 610.77 189.25
  L 598.98 189.25
  A 0.48 0.48 0.0 0 1 598.50 188.77
  L 598.50 181.48
  A 0.48 0.48 0.0 0 1 598.98 181.00
  L 612.34 181.00
  A 0.48 0.48 0.0 0 0 612.82 180.52
  L 612.82 177.23
  A 0.48 0.48 0.0 0 0 612.34 176.75
  L 593.98 176.75
  A 0.48 0.48 0.0 0 0 593.50 177.23
  L 593.50 205.52
  A 0.48 0.48 0.0 0 0 593.98 206.00
  L 612.77 206.00
  A 0.48 0.48 0.0 0 0 613.25 205.52
  L 613.25 202.23
  A 0.48 0.48 0.0 0 0 612.77 201.75
  L 598.98 201.75
  A 0.48 0.48 0.0 0 1 598.50 201.27
  L 598.50 193.73
  Z
  M 661.73 181.25
  A 0.52 0.52 0.0 0 1 662.25 181.77
  L 662.25 205.48
  A 0.52 0.52 0.0 0 0 662.77 206.00
  L 666.73 206.00
  A 0.52 0.52 0.0 0 0 667.25 205.48
  L 667.25 181.69
  A 0.52 0.52 0.0 0 1 667.78 181.17
  L 675.48 181.29
  A 0.52 0.52 0.0 0 0 676.01 180.76
  L 675.96 177.26
  A 0.52 0.52 0.0 0 0 675.44 176.75
  L 653.51 176.75
  A 0.52 0.52 0.0 0 0 652.99 177.27
  L 653.02 180.73
  A 0.52 0.52 0.0 0 0 653.54 181.25
  L 661.73 181.25
  Z
  M 716.00 194.00
  L 721.43 194.00
  Q 721.96 194.00 722.17 194.49
  L 726.83 205.41
  Q 727.08 206.00 727.73 206.00
  L 731.58 206.00
  Q 732.21 206.00 731.96 205.43
  L 726.86 193.94
  Q 726.63 193.41 727.12 193.10
  C 735.16 188.13 732.91 176.96 722.98 176.81
  Q 715.37 176.70 710.93 176.76
  Q 710.25 176.78 710.25 177.46
  L 710.25 205.25
  Q 710.25 206.00 711.00 206.00
  L 714.63 206.00
  Q 715.25 206.00 715.25 205.37
  L 715.25 194.75
  Q 715.25 194.00 716.00 194.00
  Z
  M 743.00 181.48
  A 0.48 0.48 0.0 0 1 743.48 181.00
  L 756.88 181.00
  A 0.48 0.48 0.0 0 0 757.36 180.52
  L 757.36 177.23
  A 0.48 0.48 0.0 0 0 756.88 176.75
  L 738.48 176.75
  A 0.48 0.48 0.0 0 0 738.00 177.23
  L 738.00 205.52
  A 0.48 0.48 0.0 0 0 738.48 206.00
  L 757.21 206.00
  A 0.48 0.48 0.0 0 0 757.69 205.50
  L 757.59 202.21
  A 0.48 0.48 0.0 0 0 757.11 201.75
  L 743.48 201.75
  A 0.48 0.48 0.0 0 1 743.00 201.27
  L 743.00 193.73
  A 0.48 0.48 0.0 0 1 743.48 193.25
  L 755.21 193.25
  A 0.48 0.48 0.0 0 0 755.69 192.75
  L 755.55 189.71
  A 0.48 0.48 0.0 0 0 755.07 189.25
  L 743.48 189.25
  A 0.48 0.48 0.0 0 1 743.00 188.77
  L 743.00 181.48
  Z"
/>
<path fill="#ffffff" d="
  M 630.40 190.40
  C 627.08 187.51 627.16 181.02 631.87 178.46
  C 638.12 175.06 648.89 175.61 649.91 184.33
  Q 649.99 185.00 649.31 185.00
  L 645.96 185.00
  Q 645.32 185.00 645.08 184.40
  C 643.24 179.82 634.90 178.33 633.41 183.70
  C 631.23 191.59 653.54 186.08 650.01 199.72
  C 647.59 209.05 629.61 208.45 627.42 198.65
  Q 627.28 198.00 627.94 198.00
  L 631.45 198.00
  Q 631.93 198.00 632.18 198.41
  C 638.30 208.31 650.64 197.75 643.26 194.98
  C 639.82 193.69 633.42 193.04 630.40 190.40
  Z"
/>
<path fill="#ffffff" d="
  M 704.49 194.38
  A 11.73 11.73 0.0 0 1 692.76 206.11
  L 690.62 206.11
  A 11.73 11.73 0.0 0 1 678.89 194.38
  L 678.89 188.38
  A 11.73 11.73 0.0 0 1 690.62 176.65
  L 692.76 176.65
  A 11.73 11.73 0.0 0 1 704.49 188.38
  L 704.49 194.38
  Z
  M 690.79 180.72
  C 681.51 181.20 681.22 202.00 691.47 202.20
  C 702.07 202.40 702.68 180.10 690.79 180.72
  Z"
/>
<path fill="#ffffff" d="
  M 406.08 181.25
  L 397.76 181.25
  A 0.42 0.42 0.0 0 1 397.34 180.82
  L 397.47 177.16
  A 0.42 0.42 0.0 0 1 397.89 176.75
  L 419.84 176.75
  A 0.42 0.42 0.0 0 1 420.26 177.17
  L 420.23 180.86
  A 0.42 0.42 0.0 0 1 419.81 181.28
  L 411.69 181.18
  A 0.42 0.42 0.0 0 0 411.26 181.61
  L 411.34 205.58
  A 0.42 0.42 0.0 0 1 410.92 206.00
  L 406.92 206.00
  A 0.42 0.42 0.0 0 1 406.50 205.58
  L 406.50 181.67
  A 0.42 0.42 0.0 0 0 406.08 181.25
  Z"
/>
<path fill="#ffffff" d="
  M 429.93 188.75
  L 443.22 188.75
  A 0.43 0.43 0.0 0 0 443.65 188.33
  L 443.79 177.17
  A 0.43 0.43 0.0 0 1 444.22 176.75
  L 448.07 176.75
  A 0.43 0.43 0.0 0 1 448.50 177.18
  L 448.50 205.57
  A 0.43 0.43 0.0 0 1 448.07 206.00
  L 444.14 206.00
  A 0.43 0.43 0.0 0 1 443.71 205.57
  L 443.77 193.43
  A 0.43 0.43 0.0 0 0 443.34 193.00
  L 429.93 193.00
  A 0.43 0.43 0.0 0 0 429.50 193.43
  L 429.50 205.57
  A 0.43 0.43 0.0 0 1 429.07 206.00
  L 424.93 206.00
  A 0.43 0.43 0.0 0 1 424.50 205.57
  L 424.50 177.18
  A 0.43 0.43 0.0 0 1 424.93 176.75
  L 429.07 176.75
  A 0.43 0.43 0.0 0 1 429.50 177.18
  L 429.50 188.32
  A 0.43 0.43 0.0 0 0 429.93 188.75
  Z"
/>
<path fill="#ffffff" d="
  M 460.98 201.75
  L 474.77 201.75
  A 0.48 0.48 0.0 0 1 475.25 202.23
  L 475.25 205.52
  A 0.48 0.48 0.0 0 1 474.77 206.00
  L 455.98 206.00
  A 0.48 0.48 0.0 0 1 455.50 205.52
  L 455.50 177.23
  A 0.48 0.48 0.0 0 1 455.98 176.75
  L 474.33 176.75
  A 0.48 0.48 0.0 0 1 474.81 177.22
  L 474.84 180.51
  A 0.48 0.48 0.0 0 1 474.36 181.00
  L 460.98 181.00
  A 0.48 0.48 0.0 0 0 460.50 181.48
  L 460.50 188.77
  A 0.48 0.48 0.0 0 0 460.98 189.25
  L 472.77 189.25
  A 0.48 0.48 0.0 0 1 473.25 189.73
  L 473.25 192.77
  A 0.48 0.48 0.0 0 1 472.77 193.25
  L 460.98 193.25
  A 0.48 0.48 0.0 0 0 460.50 193.73
  L 460.50 201.27
  A 0.48 0.48 0.0 0 0 460.98 201.75
  Z"
/>
<path fill="#ffffff" d="
  M 508.81 176.75
  L 512.81 176.75
  A 0.31 0.31 0.0 0 1 513.11 177.16
  L 503.10 205.79
  A 0.31 0.31 0.0 0 1 502.81 206.00
  L 497.56 206.00
  A 0.31 0.31 0.0 0 1 497.27 205.79
  L 487.26 177.16
  A 0.31 0.31 0.0 0 1 487.56 176.75
  L 491.66 176.75
  A 0.31 0.31 0.0 0 1 491.95 176.96
  L 499.88 199.56
  A 0.31 0.31 0.0 0 0 500.46 199.56
  L 508.52 176.96
  A 0.31 0.31 0.0 0 1 508.81 176.75
  Z"
/>
<path fill="#ffffff" d="
  M 529.41 198.79
  L 518.74 198.67
  A 0.42 0.42 0.0 0 0 518.34 198.95
  L 515.90 205.72
  A 0.42 0.42 0.0 0 1 515.50 206.00
  L 511.48 206.00
  A 0.42 0.42 0.0 0 1 511.08 205.44
  L 521.26 177.03
  A 0.42 0.42 0.0 0 1 521.66 176.75
  L 526.42 176.75
  A 0.42 0.42 0.0 0 1 526.82 177.03
  L 537.01 205.44
  A 0.42 0.42 0.0 0 1 536.61 206.00
  L 532.60 206.00
  A 0.42 0.42 0.0 0 1 532.21 205.72
  L 529.80 199.06
  A 0.42 0.42 0.0 0 0 529.41 198.79
  Z
  M 519.81 193.85
  A 0.30 0.30 0.0 0 0 520.09 194.24
  L 527.93 194.26
  A 0.30 0.30 0.0 0 0 528.22 193.86
  L 524.32 182.36
  A 0.30 0.30 0.0 0 0 523.75 182.36
  L 519.81 193.85
  Z"
/>
<path fill="#ffffff" d="
  M 547.75 201.75
  L 560.00 201.75
  A 0.50 0.50 0.0 0 1 560.50 202.25
  L 560.50 205.50
  A 0.50 0.50 0.0 0 1 560.00 206.00
  L 542.75 206.00
  A 0.50 0.50 0.0 0 1 542.25 205.50
  L 542.25 177.25
  A 0.50 0.50 0.0 0 1 542.75 176.75
  L 546.75 176.75
  A 0.50 0.50 0.0 0 1 547.25 177.25
  L 547.25 201.25
  A 0.50 0.50 0.0 0 0 547.75 201.75
  Z"
/>
<path fill="#ffffff" d="
  M 569.50 195.48
  C 569.56 203.98 581.61 204.86 581.79 196.00
  Q 581.98 186.75 582.05 177.41
  Q 582.05 176.75 582.71 176.75
  L 586.45 176.75
  Q 587.04 176.75 587.03 177.33
  Q 586.99 186.46 586.83 195.52
  Q 586.62 206.71 574.75 206.19
  C 567.59 205.87 565.08 202.53 564.71 195.53
  Q 564.22 186.43 564.61 177.32
  Q 564.63 176.75 565.20 176.75
  L 568.95 176.75
  Q 569.53 176.75 569.53 177.33
  Q 569.44 186.45 569.50 195.48
  Z"
/>
<path fill="#ffffff" d="
  M 598.50 193.73
  L 598.50 201.27
  A 0.48 0.48 0.0 0 0 598.98 201.75
  L 612.77 201.75
  A 0.48 0.48 0.0 0 1 613.25 202.23
  L 613.25 205.52
  A 0.48 0.48 0.0 0 1 612.77 206.00
  L 593.98 206.00
  A 0.48 0.48 0.0 0 1 593.50 205.52
  L 593.50 177.23
  A 0.48 0.48 0.0 0 1 593.98 176.75
  L 612.34 176.75
  A 0.48 0.48 0.0 0 1 612.82 177.23
  L 612.82 180.52
  A 0.48 0.48 0.0 0 1 612.34 181.00
  L 598.98 181.00
  A 0.48 0.48 0.0 0 0 598.50 181.48
  L 598.50 188.77
  A 0.48 0.48 0.0 0 0 598.98 189.25
  L 610.77 189.25
  A 0.48 0.48 0.0 0 1 611.25 189.73
  L 611.25 192.77
  A 0.48 0.48 0.0 0 1 610.77 193.25
  L 598.98 193.25
  A 0.48 0.48 0.0 0 0 598.50 193.73
  Z"
/>
<path fill="#ffffff" d="
  M 661.73 181.25
  L 653.54 181.25
  A 0.52 0.52 0.0 0 1 653.02 180.73
  L 652.99 177.27
  A 0.52 0.52 0.0 0 1 653.51 176.75
  L 675.44 176.75
  A 0.52 0.52 0.0 0 1 675.96 177.26
  L 676.01 180.76
  A 0.52 0.52 0.0 0 1 675.48 181.29
  L 667.78 181.17
  A 0.52 0.52 0.0 0 0 667.25 181.69
  L 667.25 205.48
  A 0.52 0.52 0.0 0 1 666.73 206.00
  L 662.77 206.00
  A 0.52 0.52 0.0 0 1 662.25 205.48
  L 662.25 181.77
  A 0.52 0.52 0.0 0 0 661.73 181.25
  Z"
/>
<path fill="#ffffff" d="
  M 715.25 194.75
  L 715.25 205.37
  Q 715.25 206.00 714.63 206.00
  L 711.00 206.00
  Q 710.25 206.00 710.25 205.25
  L 710.25 177.46
  Q 710.25 176.78 710.93 176.76
  Q 715.37 176.70 722.98 176.81
  C 732.91 176.96 735.16 188.13 727.12 193.10
  Q 726.63 193.41 726.86 193.94
  L 731.96 205.43
  Q 732.21 206.00 731.58 206.00
  L 727.73 206.00
  Q 727.08 206.00 726.83 205.41
  L 722.17 194.49
  Q 721.96 194.00 721.43 194.00
  L 716.00 194.00
  Q 715.25 194.00 715.25 194.75
  Z
  M 715.24 181.11
  L 715.24 189.61
  A 0.62 0.62 0.0 0 0 715.86 190.23
  L 721.27 190.23
  A 5.71 4.69 0.0 0 0 726.98 185.54
  L 726.98 185.18
  A 5.71 4.69 -0.0 0 0 721.27 180.49
  L 715.86 180.49
  A 0.62 0.62 0.0 0 0 715.24 181.11
  Z"
/>
<path fill="#ffffff" d="
  M 743.00 181.48
  L 743.00 188.77
  A 0.48 0.48 0.0 0 0 743.48 189.25
  L 755.07 189.25
  A 0.48 0.48 0.0 0 1 755.55 189.71
  L 755.69 192.75
  A 0.48 0.48 0.0 0 1 755.21 193.25
  L 743.48 193.25
  A 0.48 0.48 0.0 0 0 743.00 193.73
  L 743.00 201.27
  A 0.48 0.48 0.0 0 0 743.48 201.75
  L 757.11 201.75
  A 0.48 0.48 0.0 0 1 757.59 202.21
  L 757.69 205.50
  A 0.48 0.48 0.0 0 1 757.21 206.00
  L 738.48 206.00
  A 0.48 0.48 0.0 0 1 738.00 205.52
  L 738.00 177.23
  A 0.48 0.48 0.0 0 1 738.48 176.75
  L 756.88 176.75
  A 0.48 0.48 0.0 0 1 757.36 177.23
  L 757.36 180.52
  A 0.48 0.48 0.0 0 1 756.88 181.00
  L 743.48 181.00
  A 0.48 0.48 0.0 0 0 743.00 181.48
  Z"
/>
<path fill="#a8ce39" d="
  M 691.47 202.20
  C 681.22 202.00 681.51 181.20 690.79 180.72
  C 702.68 180.10 702.07 202.40 691.47 202.20
  Z"
/>
<path fill="#a8ce39" d="
  M 715.24 181.11
  A 0.62 0.62 0.0 0 1 715.86 180.49
  L 721.27 180.49
  A 5.71 4.69 0.0 0 1 726.98 185.18
  L 726.98 185.54
  A 5.71 4.69 -0.0 0 1 721.27 190.23
  L 715.86 190.23
  A 0.62 0.62 0.0 0 1 715.24 189.61
  L 715.24 181.11
  Z"
/>
<path fill="#a8ce39" d="
  M 519.81 193.85
  L 523.75 182.36
  A 0.30 0.30 0.0 0 1 524.32 182.36
  L 528.22 193.86
  A 0.30 0.30 0.0 0 1 527.93 194.26
  L 520.09 194.24
  A 0.30 0.30 0.0 0 1 519.81 193.85
  Z"
/>
</svg>
