<svg viewBox="0 0 654 178"><g fill="none"><path vector-effect="non-scaling-stroke" d="M635 22.59a.59.59 0 0 0-.59-.59H167.59a.59.59 0 0 0-.59.59v9.82a.59.59 0 0 0 .59.59h466.82a.59.59 0 0 0 .59-.59v-9.82M134.86 45.65C93.1.28 18.68 30.6 20.99 91.84c1.69 44.72 47.26 74.58 89.03 58.12 19.52-7.69 34.53-24.06 39.74-44.9 4.3-17.2 2.13-42.29-11.23-55.59q-1.87-1.87-3.67-3.82" stroke="#d4e79c"/><path vector-effect="non-scaling-stroke" d="M190.31 93.94q-8.07-.43-11-7.28-.17-.41-.62-.41h-7.42a.6.59-7.7 0 0-.58.75q2.72 9.81 12.56 12.53c7.71 2.13 18.77 1.32 24.14-5.53 4.64-5.92 3.6-14.56-2.51-18.82q-2.6-1.81-9.16-3.42c-5.43-1.33-16.47-2.37-14.46-9.89 2.26-8.45 18.49-7.3 19.89 1.86q.08.52.61.52h7.48q.58 0 .49-.57c-3.05-20.46-38.64-17.9-37.49 1.34 1.09 18.23 31.65 9.98 29.5 22.67-.82 4.87-7.23 6.47-11.43 6.25m209.45 1.32l3.76 4.38a1.04 1.02 69.4 0 0 .78.36h8.38q.81 0 .28-.62l-8.22-9.63a1.08 1.07-47.4 0 1-.05-1.33q5.18-7.05 7.74-15.41a.53.52-81.2 0 0-.49-.68l-7.11-.12q-.66-.01-.75.64-.79 5.8-3.5 10.96-.29.55-.69.08l-8.53-10q-.41-.48.15-.76c4.81-2.37 11.64-8.1 10.71-14.19-1.88-12.31-24.88-12.83-27.71-.82-1.45 6.14 1.85 9.28 5.28 13.73q.33.43-.15.69c-6.31 3.49-11.91 7.61-11.66 15.3.52 16.49 21.92 13.73 30.88 7.31a.67.67 0 0 1 .9.11m40.95-39.31c-6.01 7.21-2.78 17.6 6.06 20.54 3.3 1.1 18.23 3.32 20.18 7.8 4.37 10.05-17.64 14.21-22.15 2.36q-.15-.4-.58-.4h-7.48a.54.54 0 0 0-.52.68c4.08 15.13 27.52 18.54 36.61 7.1 4.2-5.28 3.9-12.88-.92-17.59-4.26-4.17-14.23-5.73-20.11-6.96-5.33-1.11-7.13-7.67-2.91-11.05 5.28-4.24 16.59-2.58 17.75 5.29a.62.62 0 0 0 .61.53h7.49q.41 0 .37-.41c-1.56-16.39-25.53-18.53-34.4-7.89m47.69.7c-5.78 6.77-6.78 17.19-5.13 25.58 1.93 9.77 7.53 16.45 17.57 18.04 11.22 1.78 21.66-3.63 24.81-14.85 2.5-8.89 1.92-19.9-3.44-27.43-7.5-10.5-24.87-11.8-33.81-1.34m137.96 7.18c-2.02-20.94-40.14-18-37.23 2.27 1.51 10.52 12.93 11.86 23.67 14.3 5.51 1.25 8.28 7.58 3.1 11.14-6.22 4.27-16.7 3.04-19.79-4.73q-.22-.56-.82-.56h-7.28q-.52 0-.43.51c2.84 15.86 28.75 18.19 36.84 6.9 6.19-8.63.95-19.02-8.91-21.29-4.88-1.12-16.9-2.08-17.7-8.48-1.2-9.58 18.84-10.77 19.95-.27a.72.71-3.1 0 0 .71.63h7.52q.41 0 .37-.42m-391.93 7.3a.32.32 0 0 1-.56 0l-11.96-20.81a.32.32 0 0 0-.28-.16l-8.22.08a.32.32 0 0 0-.28.49l16.82 28.22a.32.32 0 0 1 .05.17v20.56a.32.32 0 0 0 .32.32h7.61a.32.32 0 0 0 .32-.32V79.02a.32.32 0 0 1 .05-.17l16.78-28.16a.32.32 0 0 0-.28-.49l-8.41.04a.32.32 0 0 0-.28.16l-11.68 20.73m36.62 21.62a.3.3 0 0 1-.3-.3V78.8a.3.3 0 0 1 .3-.3h20.94a.3.3 0 0 0 .3-.3l-.06-6.65a.3.3 0 0 0-.3-.3h-20.88a.3.3 0 0 1-.3-.3v-13.4a.3.3 0 0 1 .3-.3h23.9a.3.3 0 0 0 .3-.3v-6.42a.3.3 0 0 0-.3-.3l-32.4.03a.3.3 0 0 0-.3.3V99.7a.3.3 0 0 0 .3.3h32.9a.3.3 0 0 0 .3-.3v-6.65a.3.3 0 0 0-.3-.3h-24.4m273.9 7.25a.32.32 0 0 0 .32-.32l-.06-35.24a.32.32 0 0 1 .59-.18l24.37 35.6a.32.32 0 0 0 .27.14h6.99a.32.32 0 0 0 .32-.32V50.57a.32.32 0 0 0-.32-.32h-7.61a.32.32 0 0 0-.32.32v34.29a.32.32 0 0 1-.58.18l-23.8-34.7a.32.32 0 0 0-.27-.14h-7.78a.32.32 0 0 0-.32.32v49.16a.32.32 0 0 0 .32.32h7.88m-239.2-49.5v49.16a.24.24 0 0 0 .24.24h15.97a22.99 22.02 0 0 0 22.99-22.02v-5.6a22.99 22.02 0 0 0-22.99-22.02h-15.97a.24.24 0 0 0-.24.24" stroke="gray"/><path vector-effect="non-scaling-stroke" d="M635 119.57a.57.57 0 0 0-.57-.57H167.57a.57.57 0 0 0-.57.57v36.86a.57.57 0 0 0 .57.57h466.86a.57.57 0 0 0 .57-.57v-36.86M93.93 99.23l-7.11 4.66a1.53 1.52-35.4 0 1-2.04-.34q-8.22-10.53-21.8-9.5a.55.54 70.9 0 0-.41.85c3.71 5.54 7.93 10.44 14.34 12.88a.35.35 0 0 1 .02.65l-5.02 2.24a.75.74 59.6 0 1-.91-.24q-6.96-9.49-18.26-12.93a.52.51 6.5 0 0-.67.53q.89 11.13 11.2 15.09a.4.4 0 0 1-.07.77q-13.28 2.32-26.75 1.66a1 .99-5.4 0 0-1.02 1.23q.44 1.77 1.29 2.17.17.08 2.1-.03 7.46-.43 14.91-1.17 2.54-.25 2.99 2.05c1.68 8.61 9.65 15.66 18.69 12.1a.9.9 0 0 0 .53-1.09c-2.28-7.68-7.47-10.51-14.33-13.91q-.82-.41.07-.64l9.85-2.53a.51.5-14 0 1 .62.37c2.17 8.81 11.36 17.78 20.75 11.47a1.23 1.22-40 0 0 .17-1.9c-4.57-4.41-10.94-10.78-17.55-11.01a.42.42 0 0 1-.1-.82q5.39-1.63 9.97-4.94a.88.88 0 0 1 1.37.54c1.86 8.99 12.67 11.36 20.53 10.22a.83.82 69.5 0 0 .57-1.27q-6.21-9.66-17.51-11.37-.79-.12-.15-.6l8.49-6.25a.79.78 58.4 0 1 1.16.28c4.77 9.29 17.82 13.77 23.94 2.61a.35.35 0 0 0-.28-.52c-3.35-.29-7.15.11-10.2-1.54q-4.46-2.41-9.1-4.49-.46-.2-.1-.56l5.5-5.57a.69.69 0 0 1 .86-.1c7.94 5.09 16.27 7.66 23.83.98a.78.78 0 0 0-.06-1.22q-10.33-7.41-21.69-1.43a.64.63-87.6 0 1-.83-.91q2.27-3.6 3.26-7.77a1.31 1.3-71.2 0 1 1.8-.89c6.39 2.85 14.58 3.13 19.06-3.2a1.16 1.16 0 0 0-.68-1.8c-4.96-1.18-14.27-2.39-17.92 2.15a.88.88 0 0 1-1.56-.58c.4-10.66 1.62-22.68-10.63-27.27q-.48-.18-.6.32c-2.28 9.46 2.39 15.39 9.27 20.74q.52.41.41 1.06l-.89 5.31q-.14.83-.89.46c-7.95-3.92-13.4-6.72-20.59-4.45a.31.31 0 0 0-.08.55q5.68 3.95 11.34 7.47c2.92 1.82 5.59 2.74 8.09-.02a.71.71 0 0 1 1.17.78l-2.89 6.26q-.31.68-.82.13-8.42-9.29-20.13-3.73a.37.36 51.6 0 0-.07.61q4.61 3.82 10.17 6.26c2.31 1.02 4.6.61 7.07.67a.24.24 0 0 1 .15.42l-5.8 5.01q-.87.76-1.65-.09c-5.71-6.24-14.4-7.52-22.4-6.76a.26.26 0 0 0-.15.45c5.18 4.59 10.84 10.09 18.06 10.98q.69.08.11.46" stroke="#d4e79c"/><path vector-effect="non-scaling-stroke" d="M394.84 60.87c1.28-11.18-22.64-5.81-7.65 7.83q.36.32.78.09c3.09-1.7 6.45-4.29 6.87-7.92m-10.96 16.55c-15.35 8.32-1.1 23.32 10.84 12.64q.42-.38.05-.8l-10.1-11.69q-.34-.39-.79-.15m132.23-13.59c-4.38-10.56-19.96-9.5-23.07 1.68-2.68 9.6-2.54 27.12 10.92 27.96 15.51.98 16.06-20.18 12.15-29.64M314.3 57.6l-.12 34.76a.6.6 0 0 0 .6.6l5.74.02a15.64 15.62.2 0 0 15.69-15.56l.02-4.72a15.64 15.62.2 0 0-15.59-15.68L314.9 57a.6.6 0 0 0-.6.6" stroke="gray"/><g stroke="#d4e79c"><path vector-effect="non-scaling-stroke" d="M435.84 134.57a1.9 1.89-62.5 0 1-.88-2.8c1.73-2.64 6.75-2.52 7.61.71q.14.52.68.52h2.22a.61.61 0 0 0 .55-.87q-2.99-6.34-10.13-4.58-3.23.79-4.17 3.69c-3.14 9.62 12.08 5.04 10.93 11.57a1 .97-11.6 0 1-.47.69q-3.23 2.03-6.68.27a1.21 1.19-88.1 0 1-.56-.61q-1.01-2.43-3.73-1.41-.45.17-.31.63c1.52 5.26 8.68 5.9 12.55 3.48 2.96-1.86 3.74-5.77 1.04-8.16-1.97-1.75-5.91-2.04-8.65-3.13m37.931 12.84a10.17 8.84 90.5 0 0 8.928-10.093 10.17 8.84 90.5 0 0-8.751-10.247 10.17 8.84 90.5 0 0-8.928 10.093 10.17 8.84 90.5 0 0 8.751 10.247M287 130.93a.5.5 0 0 1 .51-.5l4.73.1a.5.5 0 0 0 .51-.5V128a.5.5 0 0 0-.5-.5H278a.5.5 0 0 0-.5.5v2a.5.5 0 0 0 .5.5h5.27a.5.5 0 0 1 .5.5l-.05 15.5a.5.5 0 0 0 .5.5h2.28a.5.5 0 0 0 .5-.5v-15.57m20.82 7.32a.47.47 0 0 1 .47.47l.03 7.81a.47.47 0 0 0 .47.47h2.27a.47.47 0 0 0 .47-.47l-.02-18.56a.47.47 0 0 0-.47-.47h-2.34a.47.47 0 0 0-.47.48l.08 7.04a.47.47 0 0 1-.47.48h-8.7a.47.47 0 0 1-.46-.48l.21-7.04a.47.47 0 0 0-.46-.48h-2.31a.47.47 0 0 0-.47.47l-.04 18.54a.47.47 0 0 0 .46.47l2.29.03a.47.47 0 0 0 .47-.47l-.11-7.81a.47.47 0 0 1 .47-.48h8.63m11.95-2.99l-.06-4.39q-.01-.62.6-.62h8.31q.63 0 .63-.63v-1.37q0-.75-.75-.75h-11.38q-.64 0-.64.64v18.21q0 .58.58.6c3.47.13 7.04-.16 10.48.13q1.3.11 1.95-.58a1.34 1.34 0 0 0-.97-2.25l-8.26-.01a.56.56 0 0 1-.56-.54l-.13-4.6a.59.59 0 0 1 .59-.6h7.47q.57 0 .57-.57v-1.61a.57.57 0 0 0-.57-.57h-7.37q-.48 0-.49-.49m26 7.27l-5.1-14.54a.75.74 79.9 0 0-.7-.49h-1.92a.5.5 0 0 0-.47.67l6.06 17.46a2.54 2.54 0 0 0 4.8 0l6.13-17.61q.18-.52-.37-.52h-1.96q-.64 0-.85.6l-5.05 14.43a.3.3 0 0 1-.57 0m14.21-13.77l-6.37 17.59a.49.48-80.1 0 0 .45.65h2.19q.54 0 .71-.51l1.29-3.84a.94.93-81 0 1 .89-.65h6.18a.89.88 80.9 0 1 .84.61l1.25 3.76a.93.92-9.1 0 0 .88.63h2.18q.52 0 .35-.49l-6.41-17.75a2.36 2.35-45 0 0-4.43 0m14.85-1.26a.55.55 0 0 0-.55.54l-.3 18.4a.55.55 0 0 0 .55.56h11.17a.55.55 0 0 0 .55-.55v-1.65a.55.55 0 0 0-.55-.55h-7.65a.55.55 0 0 1-.55-.55v-15.65a.55.55 0 0 0-.55-.55h-2.12m14.41.59c.02 6.4-2.8 18.85 7.02 19.12 10.67.29 7.62-12.47 7.87-19.06q.03-.65-.62-.65h-2.04a.73.73 0 0 0-.73.73q.03 5.88-.02 11.75c-.05 6.15-8.22 6.38-8.23-.94q0-5.5.01-10.97.01-.57-.57-.57h-2.11q-.58 0-.58.59m22.92 7.66a.39.39 0 0 1-.39-.38l-.06-4.72a.39.39 0 0 1 .39-.4h8.76a.39.39 0 0 0 .39-.39v-1.97a.39.39 0 0 0-.39-.39h-11.99a.39.39 0 0 0-.39.39v18.72a.39.39 0 0 0 .39.39h12.21a.39.39 0 0 0 .39-.38l.04-1.97a.39.39 0 0 0-.39-.4l-9.08-.01a.39.39 0 0 1-.39-.39l.07-4.96a.39.39 0 0 1 .39-.39h7.76a.39.39 0 0 0 .39-.41l-.08-1.97a.39.39 0 0 0-.39-.37h-7.63m45.34-4.65a.59.59 0 0 1 .59-.59l4.57-.02a.59.59 0 0 0 .59-.59v-1.81a.59.59 0 0 0-.59-.59h-14.04a.59.59 0 0 0-.59.63l.11 1.82a.59.59 0 0 0 .59.55h4.93a.59.59 0 0 1 .59.59v15.32a.59.59 0 0 0 .59.59h2.07a.59.59 0 0 0 .59-.59V131.1m40.19 7.22c3.33-2.04 4.26-6.29 1.54-9.23-2.08-2.24-9.23-1.69-11.88-1.54q-1.03.06-1.02 1.09l.2 17.84q.01.51.52.51h1.97q.56 0 .56-.56l.02-6.75q.01-.72.72-.7l3.1.07q.79.02 1.09.75l2.75 6.63q.24.58.87.58l2.19-.03a.42.41 78.3 0 0 .38-.58l-3.23-7.35q-.21-.47.22-.73m11.03-2.57a.47.47 0 0 1-.47-.47v-4.56a.47.47 0 0 1 .47-.47h8.56a.47.47 0 0 0 .47-.47v-1.81a.47.47 0 0 0-.47-.47h-12.06a.47.47 0 0 0-.47.47v18.56a.47.47 0 0 0 .47.47h12.31a.47.47 0 0 0 .47-.47v-1.81a.47.47 0 0 0-.47-.47l-8.94-.01a.47.47 0 0 1-.47-.49l.19-4.8a.47.47 0 0 1 .47-.45h7.25a.47.47 0 0 0 .47-.47v-1.81a.47.47 0 0 0-.47-.47h-7.31"/><path vector-effect="non-scaling-stroke" d="M473.896 144.65a7.39 5.24 89.8 0 0 5.214-7.408 7.39 5.24 89.8 0 0-5.266-7.372 7.39 5.24 89.8 0 0-5.214 7.408 7.39 5.24 89.8 0 0 5.266 7.372m-114.526-5.81a.3.3 0 0 0 .28.4l5.08.02a.3.3 0 0 0 .28-.4l-2.51-7.23a.3.3 0 0 0-.57 0l-2.56 7.21m130.32-8.54l.02 5.92a.28.28 0 0 0 .28.28l3.25-.01a4.25 3.09-.2 0 0 4.24-3.1v-.3a4.25 3.09-.2 0 0-4.26-3.08l-3.25.01a.28.28 0 0 0-.28.28"/></g></g><path fill="#fff" d="M85.56 0H654v178H85.2C36.66 175.28 1.95 138.39 0 89.86v-1.89C1.55 39.61 37.16 2.65 85.56 0zM635 22.59a.59.59 0 0 0-.59-.59H167.59a.59.59 0 0 0-.59.59v9.82a.59.59 0 0 0 .59.59h466.82a.59.59 0 0 0 .59-.59v-9.82zM134.86 45.65C93.1.28 18.68 30.6 20.99 91.84c1.69 44.72 47.26 74.58 89.03 58.12 19.52-7.69 34.53-24.06 39.74-44.9 4.3-17.2 2.13-42.29-11.23-55.59q-1.87-1.87-3.67-3.82zm55.45 48.29q-8.07-.43-11-7.28-.17-.41-.62-.41h-7.42a.6.59-7.7 0 0-.58.75q2.72 9.81 12.56 12.53c7.71 2.13 18.77 1.32 24.14-5.53 4.64-5.92 3.6-14.56-2.51-18.82q-2.6-1.81-9.16-3.42c-5.43-1.33-16.47-2.37-14.46-9.89 2.26-8.45 18.49-7.3 19.89 1.86q.08.52.61.52h7.48q.58 0 .49-.57c-3.05-20.46-38.64-17.9-37.49 1.34 1.09 18.23 31.65 9.98 29.5 22.67-.82 4.87-7.23 6.47-11.43 6.25zm209.45 1.32l3.76 4.38a1.04 1.02 69.4 0 0 .78.36h8.38q.81 0 .28-.62l-8.22-9.63a1.08 1.07-47.4 0 1-.05-1.33q5.18-7.05 7.74-15.41a.53.52-81.2 0 0-.49-.68l-7.11-.12q-.66-.01-.75.64-.79 5.8-3.5 10.96-.29.55-.69.08l-8.53-10q-.41-.48.15-.76c4.81-2.37 11.64-8.1 10.71-14.19-1.88-12.31-24.88-12.83-27.71-.82-1.45 6.14 1.85 9.28 5.28 13.73q.33.43-.15.69c-6.31 3.49-11.91 7.61-11.66 15.3.52 16.49 21.92 13.73 30.88 7.31a.67.67 0 0 1 .9.11zm40.95-39.31c-6.01 7.21-2.78 17.6 6.06 20.54 3.3 1.1 18.23 3.32 20.18 7.8 4.37 10.05-17.64 14.21-22.15 2.36q-.15-.4-.58-.4h-7.48a.54.54 0 0 0-.52.68c4.08 15.13 27.52 18.54 36.61 7.1 4.2-5.28 3.9-12.88-.92-17.59-4.26-4.17-14.23-5.73-20.11-6.96-5.33-1.11-7.13-7.67-2.91-11.05 5.28-4.24 16.59-2.58 17.75 5.29a.62.62 0 0 0 .61.53h7.49q.41 0 .37-.41c-1.56-16.39-25.53-18.53-34.4-7.89zm47.69.7c-5.78 6.77-6.78 17.19-5.13 25.58 1.93 9.77 7.53 16.45 17.57 18.04 11.22 1.78 21.66-3.63 24.81-14.85 2.5-8.89 1.92-19.9-3.44-27.43-7.5-10.5-24.87-11.8-33.81-1.34zm137.96 7.18c-2.02-20.94-40.14-18-37.23 2.27 1.51 10.52 12.93 11.86 23.67 14.3 5.51 1.25 8.28 7.58 3.1 11.14-6.22 4.27-16.7 3.04-19.79-4.73q-.22-.56-.82-.56h-7.28q-.52 0-.43.51c2.84 15.86 28.75 18.19 36.84 6.9 6.19-8.63.95-19.02-8.91-21.29-4.88-1.12-16.9-2.08-17.7-8.48-1.2-9.58 18.84-10.77 19.95-.27a.72.71-3.1 0 0 .71.63h7.52q.41 0 .37-.42zm-391.93 7.3a.32.32 0 0 1-.56 0l-11.96-20.81a.32.32 0 0 0-.28-.16l-8.22.08a.32.32 0 0 0-.28.49l16.82 28.22a.32.32 0 0 1 .05.17v20.56a.32.32 0 0 0 .32.32h7.61a.32.32 0 0 0 .32-.32V79.02a.32.32 0 0 1 .05-.17l16.78-28.16a.32.32 0 0 0-.28-.49l-8.41.04a.32.32 0 0 0-.28.16l-11.68 20.73zm36.62 21.62a.3.3 0 0 1-.3-.3V78.8a.3.3 0 0 1 .3-.3h20.94a.3.3 0 0 0 .3-.3l-.06-6.65a.3.3 0 0 0-.3-.3h-20.88a.3.3 0 0 1-.3-.3v-13.4a.3.3 0 0 1 .3-.3h23.9a.3.3 0 0 0 .3-.3v-6.42a.3.3 0 0 0-.3-.3l-32.4.03a.3.3 0 0 0-.3.3V99.7a.3.3 0 0 0 .3.3h32.9a.3.3 0 0 0 .3-.3v-6.65a.3.3 0 0 0-.3-.3h-24.4zm273.9 7.25a.32.32 0 0 0 .32-.32l-.06-35.24a.32.32 0 0 1 .59-.18l24.37 35.6a.32.32 0 0 0 .27.14h6.99a.32.32 0 0 0 .32-.32V50.57a.32.32 0 0 0-.32-.32h-7.61a.32.32 0 0 0-.32.32v34.29a.32.32 0 0 1-.58.18l-23.8-34.7a.32.32 0 0 0-.27-.14h-7.78a.32.32 0 0 0-.32.32v49.16a.32.32 0 0 0 .32.32h7.88zm-239.2-49.5v49.16a.24.24 0 0 0 .24.24h15.97a22.99 22.02 0 0 0 22.99-22.02v-5.6a22.99 22.02 0 0 0-22.99-22.02h-15.97a.24.24 0 0 0-.24.24zM635 119.57a.57.57 0 0 0-.57-.57H167.57a.57.57 0 0 0-.57.57v36.86a.57.57 0 0 0 .57.57h466.86a.57.57 0 0 0 .57-.57v-36.86z"/><g fill="#a8ce39"><rect x="167" y="22" width="468" height="11" rx=".59"/><path d="M134.86 45.65q1.8 1.95 3.67 3.82c13.36 13.3 15.53 38.39 11.23 55.59-5.21 20.84-20.22 37.21-39.74 44.9-41.77 16.46-87.34-13.4-89.03-58.12C18.68 30.6 93.1.28 134.86 45.65zM93.93 99.23l-7.11 4.66a1.53 1.52-35.4 0 1-2.04-.34q-8.22-10.53-21.8-9.5a.55.54 70.9 0 0-.41.85c3.71 5.54 7.93 10.44 14.34 12.88a.35.35 0 0 1 .02.65l-5.02 2.24a.75.74 59.6 0 1-.91-.24q-6.96-9.49-18.26-12.93a.52.51 6.5 0 0-.67.53q.89 11.13 11.2 15.09a.4.4 0 0 1-.07.77q-13.28 2.32-26.75 1.66a1 .99-5.4 0 0-1.02 1.23q.44 1.77 1.29 2.17.17.08 2.1-.03 7.46-.43 14.91-1.17 2.54-.25 2.99 2.05c1.68 8.61 9.65 15.66 18.69 12.1a.9.9 0 0 0 .53-1.09c-2.28-7.68-7.47-10.51-14.33-13.91q-.82-.41.07-.64l9.85-2.53a.51.5-14 0 1 .62.37c2.17 8.81 11.36 17.78 20.75 11.47a1.23 1.22-40 0 0 .17-1.9c-4.57-4.41-10.94-10.78-17.55-11.01a.42.42 0 0 1-.1-.82q5.39-1.63 9.97-4.94a.88.88 0 0 1 1.37.54c1.86 8.99 12.67 11.36 20.53 10.22a.83.82 69.5 0 0 .57-1.27q-6.21-9.66-17.51-11.37-.79-.12-.15-.6l8.49-6.25a.79.78 58.4 0 1 1.16.28c4.77 9.29 17.82 13.77 23.94 2.61a.35.35 0 0 0-.28-.52c-3.35-.29-7.15.11-10.2-1.54q-4.46-2.41-9.1-4.49-.46-.2-.1-.56l5.5-5.57a.69.69 0 0 1 .86-.1c7.94 5.09 16.27 7.66 23.83.98a.78.78 0 0 0-.06-1.22q-10.33-7.41-21.69-1.43a.64.63-87.6 0 1-.83-.91q2.27-3.6 3.26-7.77a1.31 1.3-71.2 0 1 1.8-.89c6.39 2.85 14.58 3.13 19.06-3.2a1.16 1.16 0 0 0-.68-1.8c-4.96-1.18-14.27-2.39-17.92 2.15a.88.88 0 0 1-1.56-.58c.4-10.66 1.62-22.68-10.63-27.27q-.48-.18-.6.32c-2.28 9.46 2.39 15.39 9.27 20.74q.52.41.41 1.06l-.89 5.31q-.14.83-.89.46c-7.95-3.92-13.4-6.72-20.59-4.45a.31.31 0 0 0-.08.55q5.68 3.95 11.34 7.47c2.92 1.82 5.59 2.74 8.09-.02a.71.71 0 0 1 1.17.78l-2.89 6.26q-.31.68-.82.13-8.42-9.29-20.13-3.73a.37.36 51.6 0 0-.07.61q4.61 3.82 10.17 6.26c2.31 1.02 4.6.61 7.07.67a.24.24 0 0 1 .15.42l-5.8 5.01q-.87.76-1.65-.09c-5.71-6.24-14.4-7.52-22.4-6.76a.26.26 0 0 0-.15.45c5.18 4.59 10.84 10.09 18.06 10.98q.69.08.11.46z"/></g><path fill="#fff" d="M93.82 98.77c-7.22-.89-12.88-6.39-18.06-10.98a.26.26 0 0 1 .15-.45c8-.76 16.69.52 22.4 6.76q.78.85 1.65.09l5.8-5.01a.24.24 0 0 0-.15-.42c-2.47-.06-4.76.35-7.07-.67q-5.56-2.44-10.17-6.26a.37.36 51.6 0 1 .07-.61q11.71-5.56 20.13 3.73.51.55.82-.13l2.89-6.26a.71.71 0 0 0-1.17-.78c-2.5 2.76-5.17 1.84-8.09.02q-5.66-3.52-11.34-7.47a.31.31 0 0 1 .08-.55c7.19-2.27 12.64.53 20.59 4.45q.75.37.89-.46l.89-5.31q.11-.65-.41-1.06c-6.88-5.35-11.55-11.28-9.27-20.74q.12-.5.6-.32c12.25 4.59 11.03 16.61 10.63 27.27a.88.88 0 0 0 1.56.58c3.65-4.54 12.96-3.33 17.92-2.15a1.16 1.16 0 0 1 .68 1.8c-4.48 6.33-12.67 6.05-19.06 3.2a1.31 1.3-71.2 0 0-1.8.89q-.99 4.17-3.26 7.77a.64.63-87.6 0 0 .83.91q11.36-5.98 21.69 1.43a.78.78 0 0 1 .06 1.22c-7.56 6.68-15.89 4.11-23.83-.98a.69.69 0 0 0-.86.1l-5.5 5.57q-.36.36.1.56 4.64 2.08 9.1 4.49c3.05 1.65 6.85 1.25 10.2 1.54a.35.35 0 0 1 .28.52c-6.12 11.16-19.17 6.68-23.94-2.61a.79.78 58.4 0 0-1.16-.28l-8.49 6.25q-.64.48.15.6 11.3 1.71 17.51 11.37a.83.82 69.5 0 1-.57 1.27c-7.86 1.14-18.67-1.23-20.53-10.22a.88.88 0 0 0-1.37-.54q-4.58 3.31-9.97 4.94a.42.42 0 0 0 .1.82c6.61.23 12.98 6.6 17.55 11.01a1.23 1.22-40 0 1-.17 1.9c-9.39 6.31-18.58-2.66-20.75-11.47a.51.5-14 0 0-.62-.37l-9.85 2.53q-.89.23-.07.64c6.86 3.4 12.05 6.23 14.33 13.91a.9.9 0 0 1-.53 1.09c-9.04 3.56-17.01-3.49-18.69-12.1q-.45-2.3-2.99-2.05-7.45.74-14.91 1.17-1.93.11-2.1.03-.85-.4-1.29-2.17a1 .99-5.4 0 1 1.02-1.23q13.47.66 26.75-1.66a.4.4 0 0 0 .07-.77q-10.31-3.96-11.2-15.09a.52.51 6.5 0 1 .67-.53q11.3 3.44 18.26 12.93a.75.74 59.6 0 0 .91.24l5.02-2.24a.35.35 0 0 0-.02-.65c-6.41-2.44-10.63-7.34-14.34-12.88a.55.54 70.9 0 1 .41-.85q13.58-1.03 21.8 9.5a1.53 1.52-35.4 0 0 2.04.34l7.11-4.66q.58-.38-.11-.46z"/><path d="M190.31 93.94c4.2.22 10.61-1.38 11.43-6.25 2.15-12.69-28.41-4.44-29.5-22.67-1.15-19.24 34.44-21.8 37.49-1.34q.09.57-.49.57h-7.48q-.53 0-.61-.52c-1.4-9.16-17.63-10.31-19.89-1.86-2.01 7.52 9.03 8.56 14.46 9.89q6.56 1.61 9.16 3.42c6.11 4.26 7.15 12.9 2.51 18.82-5.37 6.85-16.43 7.66-24.14 5.53q-9.84-2.72-12.56-12.53a.6.59-7.7 0 1 .58-.75h7.42q.45 0 .62.41 2.93 6.85 11 7.28zm209.45 1.32a.67.67 0 0 0-.9-.11c-8.96 6.42-30.36 9.18-30.88-7.31-.25-7.69 5.35-11.81 11.66-15.3q.48-.26.15-.69c-3.43-4.45-6.73-7.59-5.28-13.73 2.83-12.01 25.83-11.49 27.71.82.93 6.09-5.9 11.82-10.71 14.19q-.56.28-.15.76l8.53 10q.4.47.69-.08 2.71-5.16 3.5-10.96.09-.65.75-.64l7.11.12a.53.52-81.2 0 1 .49.68q-2.56 8.36-7.74 15.41a1.08 1.07-47.4 0 0 .05 1.33l8.22 9.63q.53.62-.28.62h-8.38a1.04 1.02 69.4 0 1-.78-.36l-3.76-4.38zm-4.92-34.39c1.28-11.18-22.64-5.81-7.65 7.83q.36.32.78.09c3.09-1.7 6.45-4.29 6.87-7.92zm-10.96 16.55c-15.35 8.32-1.1 23.32 10.84 12.64q.42-.38.05-.8l-10.1-11.69q-.34-.39-.79-.15zm56.83-21.47c8.87-10.64 32.84-8.5 34.4 7.89q.04.41-.37.41h-7.49a.62.62 0 0 1-.61-.53c-1.16-7.87-12.47-9.53-17.75-5.29-4.22 3.38-2.42 9.94 2.91 11.05 5.88 1.23 15.85 2.79 20.11 6.96 4.82 4.71 5.12 12.31.92 17.59-9.09 11.44-32.53 8.03-36.61-7.1a.54.54 0 0 1 .52-.68h7.48q.43 0 .58.4c4.51 11.85 26.52 7.69 22.15-2.36-1.95-4.48-16.88-6.7-20.18-7.8-8.84-2.94-12.07-13.33-6.06-20.54zm47.69.7c8.94-10.46 26.31-9.16 33.81 1.34 5.36 7.53 5.94 18.54 3.44 27.43-3.15 11.22-13.59 16.63-24.81 14.85-10.04-1.59-15.64-8.27-17.57-18.04-1.65-8.39-.65-18.81 5.13-25.58zm27.71 7.18c-4.38-10.56-19.96-9.5-23.07 1.68-2.68 9.6-2.54 27.12 10.92 27.96 15.51.98 16.06-20.18 12.15-29.64zm73.02 2.27c-2.91-20.27 35.21-23.21 37.23-2.27q.04.42-.37.42h-7.52a.72.71-3.1 0 1-.71-.63c-1.11-10.5-21.15-9.31-19.95.27.8 6.4 12.82 7.36 17.7 8.48 9.86 2.27 15.1 12.66 8.91 21.29-8.09 11.29-34 8.96-36.84-6.9q-.09-.51.43-.51h7.28q.6 0 .82.56c3.09 7.77 13.57 9 19.79 4.73 5.18-3.56 2.41-9.89-3.1-11.14-10.74-2.44-22.16-3.78-23.67-14.3zm-354.7 5.03l11.68-20.73a.32.32 0 0 1 .28-.16l8.41-.04a.32.32 0 0 1 .28.49L238.3 78.85a.32.32 0 0 0-.05.17v20.66a.32.32 0 0 1-.32.32h-7.61a.32.32 0 0 1-.32-.32V79.12a.32.32 0 0 0-.05-.17l-16.82-28.22a.32.32 0 0 1 .28-.49l8.22-.08a.32.32 0 0 1 .28.16l11.96 20.81a.32.32 0 0 0 .56 0zm36.62 21.62h24.4a.3.3 0 0 1 .3.3v6.65a.3.3 0 0 1-.3.3h-32.9a.3.3 0 0 1-.3-.3V50.56a.3.3 0 0 1 .3-.3l32.4-.03a.3.3 0 0 1 .3.3v6.42a.3.3 0 0 1-.3.3h-23.9a.3.3 0 0 0-.3.3v13.4a.3.3 0 0 0 .3.3h20.88a.3.3 0 0 1 .3.3l.06 6.65a.3.3 0 0 1-.3.3h-20.94a.3.3 0 0 0-.3.3v13.65a.3.3 0 0 0 .3.3zm273.9 7.25h-7.88a.32.32 0 0 1-.32-.32V50.52a.32.32 0 0 1 .32-.32h7.78a.32.32 0 0 1 .27.14l23.8 34.7a.32.32 0 0 0 .58-.18V50.57a.32.32 0 0 1 .32-.32h7.61a.32.32 0 0 1 .32.32v49.11a.32.32 0 0 1-.32.32h-6.99a.32.32 0 0 1-.27-.14l-24.37-35.6a.32.32 0 0 0-.59.18l.06 35.24a.32.32 0 0 1-.32.32zm-239.2-49.5a.24.24 0 0 1 .24-.24h15.97a22.99 22.02 0 0 1 22.99 22.02v5.6a22.99 22.02 0 0 1-22.99 22.02h-15.97a.24.24 0 0 1-.24-.24V50.5zm8.55 7.1l-.12 34.76a.6.6 0 0 0 .6.6l5.74.02a15.64 15.62.2 0 0 15.69-15.56l.02-4.72a15.64 15.62.2 0 0-15.59-15.68L314.9 57a.6.6 0 0 0-.6.6z"/><path d="M387.19 68.7c-14.99-13.64 8.93-19.01 7.65-7.83-.42 3.63-3.78 6.22-6.87 7.92q-.42.23-.78-.09zm105.85-3.19c3.11-11.18 18.69-12.24 23.07-1.68 3.91 9.46 3.36 30.62-12.15 29.64-13.46-.84-13.6-18.36-10.92-27.96zM314.3 57.6a.6.6 0 0 1 .6-.6l5.74.02a15.64 15.62.2 0 1 15.59 15.68l-.02 4.72a15.64 15.62.2 0 1-15.69 15.56l-5.74-.02a.6.6 0 0 1-.6-.6l.12-34.76zm80.42 32.46c-11.94 10.68-26.19-4.32-10.84-12.64q.45-.24.79.15l10.1 11.69q.37.42-.05.8z" fill="#fff"/><path fill="#a8ce39" d="M635 156.43a.57.57 0 0 1-.57.57H167.57a.57.57 0 0 1-.57-.57v-36.86a.57.57 0 0 1 .57-.57h466.86a.57.57 0 0 1 .57.57v36.86zm-199.16-21.86a1.9 1.89-62.5 0 1-.88-2.8c1.73-2.64 6.75-2.52 7.61.71q.14.52.68.52h2.22a.61.61 0 0 0 .55-.87q-2.99-6.34-10.13-4.58-3.23.79-4.17 3.69c-3.14 9.62 12.08 5.04 10.93 11.57a1 .97-11.6 0 1-.47.69q-3.23 2.03-6.68.27a1.21 1.19-88.1 0 1-.56-.61q-1.01-2.43-3.73-1.41-.45.17-.31.63c1.52 5.26 8.68 5.9 12.55 3.48 2.96-1.86 3.74-5.77 1.04-8.16-1.97-1.75-5.91-2.04-8.65-3.13zm37.931 12.84a10.17 8.84 90.5 0 0 8.928-10.093 10.17 8.84 90.5 0 0-8.751-10.247 10.17 8.84 90.5 0 0-8.928 10.093 10.17 8.84 90.5 0 0 8.751 10.247zM287 130.93a.5.5 0 0 1 .51-.5l4.73.1a.5.5 0 0 0 .51-.5V128a.5.5 0 0 0-.5-.5H278a.5.5 0 0 0-.5.5v2a.5.5 0 0 0 .5.5h5.27a.5.5 0 0 1 .5.5l-.05 15.5a.5.5 0 0 0 .5.5h2.28a.5.5 0 0 0 .5-.5v-15.57zm20.82 7.32a.47.47 0 0 1 .47.47l.03 7.81a.47.47 0 0 0 .47.47h2.27a.47.47 0 0 0 .47-.47l-.02-18.56a.47.47 0 0 0-.47-.47h-2.34a.47.47 0 0 0-.47.48l.08 7.04a.47.47 0 0 1-.47.48h-8.7a.47.47 0 0 1-.46-.48l.21-7.04a.47.47 0 0 0-.46-.48h-2.31a.47.47 0 0 0-.47.47l-.04 18.54a.47.47 0 0 0 .46.47l2.29.03a.47.47 0 0 0 .47-.47l-.11-7.81a.47.47 0 0 1 .47-.48h8.63zm11.95-2.99l-.06-4.39q-.01-.62.6-.62h8.31q.63 0 .63-.63v-1.37q0-.75-.75-.75h-11.38q-.64 0-.64.64v18.21q0 .58.58.6c3.47.13 7.04-.16 10.48.13q1.3.11 1.95-.58a1.34 1.34 0 0 0-.97-2.25l-8.26-.01a.56.56 0 0 1-.56-.54l-.13-4.6a.59.59 0 0 1 .59-.6h7.47q.57 0 .57-.57v-1.61a.57.57 0 0 0-.57-.57h-7.37q-.48 0-.49-.49zm26 7.27l-5.1-14.54a.75.74 79.9 0 0-.7-.49h-1.92a.5.5 0 0 0-.47.67l6.06 17.46a2.54 2.54 0 0 0 4.8 0l6.13-17.61q.18-.52-.37-.52h-1.96q-.64 0-.85.6l-5.05 14.43a.3.3 0 0 1-.57 0zm14.21-13.77l-6.37 17.59a.49.48-80.1 0 0 .45.65h2.19q.54 0 .71-.51l1.29-3.84a.94.93-81 0 1 .89-.65h6.18a.89.88 80.9 0 1 .84.61l1.25 3.76a.93.92-9.1 0 0 .88.63h2.18q.52 0 .35-.49l-6.41-17.75a2.36 2.35-45 0 0-4.43 0zm14.85-1.26a.55.55 0 0 0-.55.54l-.3 18.4a.55.55 0 0 0 .55.56h11.17a.55.55 0 0 0 .55-.55v-1.65a.55.55 0 0 0-.55-.55h-7.65a.55.55 0 0 1-.55-.55v-15.65a.55.55 0 0 0-.55-.55h-2.12zm14.41.59c.02 6.4-2.8 18.85 7.02 19.12 10.67.29 7.62-12.47 7.87-19.06q.03-.65-.62-.65h-2.04a.73.73 0 0 0-.73.73q.03 5.88-.02 11.75c-.05 6.15-8.22 6.38-8.23-.94q0-5.5.01-10.97.01-.57-.57-.57h-2.11q-.58 0-.58.59zm22.92 7.66a.39.39 0 0 1-.39-.38l-.06-4.72a.39.39 0 0 1 .39-.4h8.76a.39.39 0 0 0 .39-.39v-1.97a.39.39 0 0 0-.39-.39h-11.99a.39.39 0 0 0-.39.39v18.72a.39.39 0 0 0 .39.39h12.21a.39.39 0 0 0 .39-.38l.04-1.97a.39.39 0 0 0-.39-.4l-9.08-.01a.39.39 0 0 1-.39-.39l.07-4.96a.39.39 0 0 1 .39-.39h7.76a.39.39 0 0 0 .39-.41l-.08-1.97a.39.39 0 0 0-.39-.37h-7.63zm45.34-4.65a.59.59 0 0 1 .59-.59l4.57-.02a.59.59 0 0 0 .59-.59v-1.81a.59.59 0 0 0-.59-.59h-14.04a.59.59 0 0 0-.59.63l.11 1.82a.59.59 0 0 0 .59.55h4.93a.59.59 0 0 1 .59.59v15.32a.59.59 0 0 0 .59.59h2.07a.59.59 0 0 0 .59-.59V131.1zm40.19 7.22c3.33-2.04 4.26-6.29 1.54-9.23-2.08-2.24-9.23-1.69-11.88-1.54q-1.03.06-1.02 1.09l.2 17.84q.01.51.52.51h1.97q.56 0 .56-.56l.02-6.75q.01-.72.72-.7l3.1.07q.79.02 1.09.75l2.75 6.63q.24.58.87.58l2.19-.03a.42.41 78.3 0 0 .38-.58l-3.23-7.35q-.21-.47.22-.73zm11.03-2.57a.47.47 0 0 1-.47-.47v-4.56a.47.47 0 0 1 .47-.47h8.56a.47.47 0 0 0 .47-.47v-1.81a.47.47 0 0 0-.47-.47h-12.06a.47.47 0 0 0-.47.47v18.56a.47.47 0 0 0 .47.47h12.31a.47.47 0 0 0 .47-.47v-1.81a.47.47 0 0 0-.47-.47l-8.94-.01a.47.47 0 0 1-.47-.49l.19-4.8a.47.47 0 0 1 .47-.45h7.25a.47.47 0 0 0 .47-.47v-1.81a.47.47 0 0 0-.47-.47h-7.31z"/><path d="M435.84 134.57c2.74 1.09 6.68 1.38 8.65 3.13 2.7 2.39 1.92 6.3-1.04 8.16-3.87 2.42-11.03 1.78-12.55-3.48q-.14-.46.31-.63 2.72-1.02 3.73 1.41a1.21 1.19-88.1 0 0 .56.61q3.45 1.76 6.68-.27a1 .97-11.6 0 0 .47-.69c1.15-6.53-14.07-1.95-10.93-11.57q.94-2.9 4.17-3.69 7.14-1.76 10.13 4.58a.61.61 0 0 1-.55.87h-2.22q-.54 0-.68-.52c-.86-3.23-5.88-3.35-7.61-.71a1.9 1.89-62.5 0 0 .88 2.8zm37.931 12.84a10.17 8.84 90.5 0 1-8.751-10.247 10.17 8.84 90.5 0 1 8.928-10.093 10.17 8.84 90.5 0 1 8.751 10.247 10.17 8.84 90.5 0 1-8.928 10.093zm.125-2.76a7.39 5.24 89.8 0 0 5.214-7.408 7.39 5.24 89.8 0 0-5.266-7.372 7.39 5.24 89.8 0 0-5.214 7.408 7.39 5.24 89.8 0 0 5.266 7.372zM287 130.93v15.57a.5.5 0 0 1-.5.5h-2.28a.5.5 0 0 1-.5-.5l.05-15.5a.5.5 0 0 0-.5-.5H278a.5.5 0 0 1-.5-.5v-2a.5.5 0 0 1 .5-.5h14.25a.5.5 0 0 1 .5.5v2.03a.5.5 0 0 1-.51.5l-4.73-.1a.5.5 0 0 0-.51.5zm20.82 7.32h-8.63a.47.47 0 0 0-.47.48l.11 7.81a.47.47 0 0 1-.47.47l-2.29-.03a.47.47 0 0 1-.46-.47l.04-18.54a.47.47 0 0 1 .47-.47h2.31a.47.47 0 0 1 .46.48l-.21 7.04a.47.47 0 0 0 .46.48h8.7a.47.47 0 0 0 .47-.48l-.08-7.04a.47.47 0 0 1 .47-.48h2.34a.47.47 0 0 1 .47.47l.02 18.56a.47.47 0 0 1-.47.47h-2.27a.47.47 0 0 1-.47-.47l-.03-7.81a.47.47 0 0 0-.47-.47zm12.44-2.5h7.37a.57.57 0 0 1 .57.57v1.61q0 .57-.57.57h-7.47a.59.59 0 0 0-.59.6l.13 4.6a.56.56 0 0 0 .56.54l8.26.01a1.34 1.34 0 0 1 .97 2.25q-.65.69-1.95.58c-3.44-.29-7.01 0-10.48-.13q-.58-.02-.58-.6v-18.21q0-.64.64-.64h11.38q.75 0 .75.75v1.37q0 .63-.63.63h-8.31q-.61 0-.6.62l.06 4.39q.01.49.49.49zm25.51 6.78a.3.3 0 0 0 .57 0l5.05-14.43q.21-.6.85-.6h1.96q.55 0 .37.52l-6.13 17.61a2.54 2.54 0 0 1-4.8 0l-6.06-17.46a.5.5 0 0 1 .47-.67h1.92a.75.74 79.9 0 1 .7.49l5.1 14.54zm14.21-13.77a2.36 2.35-45 0 1 4.43 0l6.41 17.75q.17.49-.35.49h-2.18a.93.92-9.1 0 1-.88-.63l-1.25-3.76a.89.88 80.9 0 0-.84-.61h-6.18a.94.93-81 0 0-.89.65l-1.29 3.84q-.17.51-.71.51h-2.19a.49.48-80.1 0 1-.45-.65l6.37-17.59zm-.61 10.08a.3.3 0 0 0 .28.4l5.08.02a.3.3 0 0 0 .28-.4l-2.51-7.23a.3.3 0 0 0-.57 0l-2.56 7.21zm15.46-11.34h2.12a.55.55 0 0 1 .55.55v15.65a.55.55 0 0 0 .55.55h7.65a.55.55 0 0 1 .55.55v1.65a.55.55 0 0 1-.55.55h-11.17a.55.55 0 0 1-.55-.56l.3-18.4a.55.55 0 0 1 .55-.54zm14.99 0h2.11q.58 0 .57.57-.01 5.47-.01 10.97c.01 7.32 8.18 7.09 8.23.94q.05-5.87.02-11.75a.73.73 0 0 1 .73-.73h2.04q.65 0 .62.65c-.25 6.59 2.8 19.35-7.87 19.06-9.82-.27-7-12.72-7.02-19.12q0-.59.58-.59zm22.34 8.25h7.63a.39.39 0 0 1 .39.37l.08 1.97a.39.39 0 0 1-.39.41h-7.76a.39.39 0 0 0-.39.39l-.07 4.96a.39.39 0 0 0 .39.39l9.08.01a.39.39 0 0 1 .39.4l-.04 1.97a.39.39 0 0 1-.39.38h-12.21a.39.39 0 0 1-.39-.39v-18.72a.39.39 0 0 1 .39-.39h11.99a.39.39 0 0 1 .39.39v1.97a.39.39 0 0 1-.39.39h-8.76a.39.39 0 0 0-.39.4l.06 4.72a.39.39 0 0 0 .39.38zm45.34-4.65v15.31a.59.59 0 0 1-.59.59h-2.07a.59.59 0 0 1-.59-.59v-15.32a.59.59 0 0 0-.59-.59h-4.93a.59.59 0 0 1-.59-.55l-.11-1.82a.59.59 0 0 1 .59-.63h14.04a.59.59 0 0 1 .59.59v1.81a.59.59 0 0 1-.59.59l-4.57.02a.59.59 0 0 0-.59.59zm39.97 7.95l3.23 7.35a.42.41 78.3 0 1-.38.58l-2.19.03q-.63 0-.87-.58l-2.75-6.63q-.3-.73-1.09-.75l-3.1-.07q-.71-.02-.72.7l-.02 6.75q0 .56-.56.56h-1.97q-.51 0-.52-.51l-.2-17.84q-.01-1.03 1.02-1.09c2.65-.15 9.8-.7 11.88 1.54 2.72 2.94 1.79 7.19-1.54 9.23q-.43.26-.22.73zm-7.78-8.75l.02 5.92a.28.28 0 0 0 .28.28l3.25-.01a4.25 3.09-.2 0 0 4.24-3.1v-.3a4.25 3.09-.2 0 0-4.26-3.08l-3.25.01a.28.28 0 0 0-.28.28zm19.03 5.45h7.31a.47.47 0 0 1 .47.47v1.81a.47.47 0 0 1-.47.47h-7.25a.47.47 0 0 0-.47.45l-.19 4.8a.47.47 0 0 0 .47.49l8.94.01a.47.47 0 0 1 .47.47v1.81a.47.47 0 0 1-.47.47h-12.31a.47.47 0 0 1-.47-.47v-18.56a.47.47 0 0 1 .47-.47h12.06a.47.47 0 0 1 .47.47v1.81a.47.47 0 0 1-.47.47h-8.56a.47.47 0 0 0-.47.47v4.56a.47.47 0 0 0 .47.47z" fill="#fff"/><g fill="#a8ce39"><ellipse cx="0" cy="0" transform="matrix(.003491 .999994 -.999994 .003491 473.87 137.26)" rx="7.39" ry="5.24"/><path d="M489.69 130.3a.28.28 0 0 1 .28-.28l3.25-.01a4.25 3.09-.2 0 1 4.26 3.08v.3a4.25 3.09-.2 0 1-4.24 3.1l-3.25.01a.28.28 0 0 1-.28-.28l-.02-5.92zm-130.32 8.54l2.56-7.21a.3.3 0 0 1 .57 0l2.51 7.23a.3.3 0 0 1-.28.4l-5.08-.02a.3.3 0 0 1-.28-.4z"/></g></svg>