<svg width="155.775" height="158" id="screenshot-5ba7bff4-fbe5-8044-8003-186c77777813" viewBox="0 0 155.775 158" style="-webkit-print-color-adjust: exact;" fill="none" version="1.1"><g id="shape-5ba7bff4-fbe5-8044-8003-186c77777813" width="119" version="1.2" height="119" rx="0" ry="0" style="fill: rgb(0, 0, 0);"><g id="shape-5ba7bff4-fbe5-8044-8003-186c7777fd3a"><g class="fills" id="fills-5ba7bff4-fbe5-8044-8003-186c7777fd3a"><ellipse rx="77.88767550702028" ry="79" cx="77.88767550702028" cy="79" transform="matrix(1.000000, 0.000000, 0.000000, 1.000000, 0.000000, 0.000000)" style="fill: rgb(255, 255, 255); fill-opacity: 1;"/></g></g><g id="shape-5ba7bff4-fbe5-8044-8003-186c7777a115"><defs id="defs18" rx="0" ry="0" style="fill: rgb(0, 0, 0);"/></g><g id="shape-5ba7bff4-fbe5-8044-8003-186c7777a116" rx="0" ry="0" style="fill: rgb(0, 0, 0);"><g id="shape-5ba7bff4-fbe5-8044-8003-186c7777a119"><g class="fills" id="fills-5ba7bff4-fbe5-8044-8003-186c7777a119"><path fill="none" stroke-linecap="butt" rx="0" ry="0" d="M142.925,78.977C142.925,43.091,114.061,14.000,78.455,14.000C42.849,14.000,13.984,43.091,13.984,78.977C13.984,114.863,42.849,143.954,78.455,143.954C114.061,143.954,142.925,114.863,142.925,78.977Z" style="opacity: 1; fill: none;"/></g><g id="strokes-5ba7bff4-fbe5-8044-8003-186c7777a119" class="strokes"><g class="stroke-shape"><path stroke-linecap="butt" rx="0" ry="0" d="M142.925,78.977C142.925,43.091,114.061,14.000,78.455,14.000C42.849,14.000,13.984,43.091,13.984,78.977C13.984,114.863,42.849,143.954,78.455,143.954C114.061,143.954,142.925,114.863,142.925,78.977Z" style="opacity: 1; fill: none; stroke-width: 2; stroke: rgb(212, 231, 156); stroke-opacity: 1;"/></g></g></g><g id="shape-5ba7bff4-fbe5-8044-8003-186c7777a11a"><g class="fills" id="fills-5ba7bff4-fbe5-8044-8003-186c7777a11a"><path fill="none" stroke-linecap="butt" rx="0" ry="0" d="M70.064,98.146L64.938,100.533C64.564,100.710,64.259,100.625,64.022,100.279C59.483,93.813,53.422,89.473,45.839,87.258C45.420,87.143,45.225,87.305,45.256,87.743C45.874,95.293,49.661,100.356,56.619,102.932C56.768,102.983,56.863,103.131,56.849,103.289C56.836,103.447,56.717,103.576,56.561,103.601C47.621,105.308,38.592,105.853,29.476,105.238C29.048,105.208,28.846,105.408,28.869,105.838L28.984,107.660C29.020,108.281,29.552,108.755,30.174,108.721L48.185,107.614C48.921,107.571,49.567,108.102,49.673,108.837C50.908,117.417,59.388,125.629,68.531,121.477C68.897,121.308,69.023,121.035,68.908,120.658C66.677,112.816,61.470,109.575,54.090,106.495C53.670,106.319,53.682,106.173,54.124,106.057L64.583,103.347C64.696,103.316,64.818,103.335,64.919,103.398C65.020,103.461,65.093,103.563,65.121,103.681C67.123,112.250,75.500,120.935,84.963,115.849C86.741,114.895,86.824,113.807,85.215,112.585C80.546,109.033,74.767,102.078,68.588,102.378C68.338,102.420,68.103,102.249,68.062,101.998C68.021,101.746,68.190,101.508,68.439,101.467C71.994,100.437,75.244,98.826,78.189,96.635C78.472,96.423,78.846,96.382,79.169,96.527C79.493,96.672,79.717,96.982,79.756,97.338C80.695,106.092,93.214,108.468,99.942,107.418C100.299,107.361,100.598,107.115,100.726,106.774C100.854,106.433,100.790,106.050,100.560,105.769C95.342,99.495,91.726,95.677,83.155,94.962C82.989,94.949,82.848,94.833,82.803,94.671C82.757,94.509,82.815,94.336,82.949,94.236L91.589,87.731C91.751,87.610,91.958,87.566,92.153,87.613C92.348,87.660,92.511,87.792,92.596,87.973C97.047,97.211,109.852,102.113,116.351,90.926C116.618,90.465,116.485,90.219,115.951,90.188C110.859,89.911,107.964,90.661,103.604,87.616C101.075,85.851,99.370,85.102,96.738,84.444C96.510,84.391,96.339,84.201,96.308,83.968C96.278,83.734,96.394,83.506,96.601,83.395C98.653,82.226,100.282,80.612,101.487,78.551C101.691,78.204,102.030,77.960,102.421,77.876C102.813,77.793,103.221,77.879,103.547,78.113C111.065,83.533,118.949,85.367,126.719,79.162C126.938,78.989,127.063,78.720,127.057,78.437C127.050,78.154,126.912,77.889,126.684,77.721C119.872,72.731,112.743,72.288,105.297,76.394C104.997,76.556,104.627,76.492,104.397,76.239C104.168,75.986,104.138,75.608,104.325,75.322C105.950,72.900,107.060,70.274,107.655,67.445C107.724,67.112,107.937,66.827,108.236,66.669C108.535,66.511,108.888,66.495,109.199,66.626C116.111,69.532,123.332,70.097,128.424,63.639C128.660,63.337,128.730,62.936,128.610,62.572C128.491,62.207,128.197,61.928,127.829,61.828C122.931,60.521,118.034,60.398,113.136,61.459C112.770,61.536,112.442,61.697,112.152,61.943L109.543,64.181C109.360,64.333,109.108,64.369,108.891,64.274C108.673,64.179,108.527,63.969,108.513,63.731C107.918,52.071,110.744,41.253,97.928,36.052C97.734,35.972,97.515,35.985,97.332,36.088C97.149,36.192,97.023,36.374,96.990,36.582C95.433,46.270,98.946,51.298,106.510,57.192C106.766,57.393,106.896,57.718,106.854,58.045L106.201,62.981C106.157,63.314,105.961,63.607,105.671,63.772C105.381,63.937,105.031,63.956,104.725,63.823C98.088,60.928,92.573,56.903,84.860,59.464C84.372,59.633,84.341,59.860,84.769,60.144C88.644,62.751,92.527,65.346,96.418,67.929C99.225,69.797,101.643,69.682,103.672,67.583C103.950,67.306,104.383,67.266,104.705,67.489C105.027,67.712,105.146,68.134,104.988,68.494L102.093,74.872C102.016,75.036,101.858,75.145,101.678,75.160C101.499,75.174,101.326,75.091,101.224,74.941C96.589,67.998,88.510,67.883,81.473,70.743C81.015,70.928,80.973,71.185,81.347,71.516C84.574,74.284,88.144,76.479,92.058,78.101C94.175,78.978,96.097,78.401,98.271,78.286C98.535,78.278,98.769,78.456,98.833,78.715C98.896,78.973,98.772,79.241,98.535,79.358C96.360,80.365,94.617,81.872,93.305,83.879C93.072,84.241,92.678,84.466,92.250,84.482C91.822,84.499,91.413,84.304,91.154,83.960C86.245,77.490,76.346,76.567,68.954,76.948C68.443,76.971,68.386,77.144,68.783,77.467C73.440,81.215,80.535,88.954,86.783,88.158C86.969,88.123,87.154,88.229,87.219,88.409C87.284,88.589,87.211,88.790,87.046,88.885L79.676,93.682C79.051,94.095,78.214,93.949,77.754,93.348C72.223,86.159,64.915,82.991,55.829,83.845C55.470,83.883,55.387,84.052,55.577,84.352C58.217,88.589,61.474,92.279,65.350,95.424C66.677,96.508,68.485,96.715,70.064,97.442C70.568,97.680,70.568,97.915,70.064,98.146Z" style="opacity: 1; fill: none;"/></g><g id="strokes-5ba7bff4-fbe5-8044-8003-186c7777a11a" class="strokes"><g class="stroke-shape"><path stroke-linecap="butt" rx="0" ry="0" d="M70.064,98.146L64.938,100.533C64.564,100.710,64.259,100.625,64.022,100.279C59.483,93.813,53.422,89.473,45.839,87.258C45.420,87.143,45.225,87.305,45.256,87.743C45.874,95.293,49.661,100.356,56.619,102.932C56.768,102.983,56.863,103.131,56.849,103.289C56.836,103.447,56.717,103.576,56.561,103.601C47.621,105.308,38.592,105.853,29.476,105.238C29.048,105.208,28.846,105.408,28.869,105.838L28.984,107.660C29.020,108.281,29.552,108.755,30.174,108.721L48.185,107.614C48.921,107.571,49.567,108.102,49.673,108.837C50.908,117.417,59.388,125.629,68.531,121.477C68.897,121.308,69.023,121.035,68.908,120.658C66.677,112.816,61.470,109.575,54.090,106.495C53.670,106.319,53.682,106.173,54.124,106.057L64.583,103.347C64.696,103.316,64.818,103.335,64.919,103.398C65.020,103.461,65.093,103.563,65.121,103.681C67.123,112.250,75.500,120.935,84.963,115.849C86.741,114.895,86.824,113.807,85.215,112.585C80.546,109.033,74.767,102.078,68.588,102.378C68.338,102.420,68.103,102.249,68.062,101.998C68.021,101.746,68.190,101.508,68.439,101.467C71.994,100.437,75.244,98.826,78.189,96.635C78.472,96.423,78.846,96.382,79.169,96.527C79.493,96.672,79.717,96.982,79.756,97.338C80.695,106.092,93.214,108.468,99.942,107.418C100.299,107.361,100.598,107.115,100.726,106.774C100.854,106.433,100.790,106.050,100.560,105.769C95.342,99.495,91.726,95.677,83.155,94.962C82.989,94.949,82.848,94.833,82.803,94.671C82.757,94.509,82.815,94.336,82.949,94.236L91.589,87.731C91.751,87.610,91.958,87.566,92.153,87.613C92.348,87.660,92.511,87.792,92.596,87.973C97.047,97.211,109.852,102.113,116.351,90.926C116.618,90.465,116.485,90.219,115.951,90.188C110.859,89.911,107.964,90.661,103.604,87.616C101.075,85.851,99.370,85.102,96.738,84.444C96.510,84.391,96.339,84.201,96.308,83.968C96.278,83.734,96.394,83.506,96.601,83.395C98.653,82.226,100.282,80.612,101.487,78.551C101.691,78.204,102.030,77.960,102.421,77.876C102.813,77.793,103.221,77.879,103.547,78.113C111.065,83.533,118.949,85.367,126.719,79.162C126.938,78.989,127.063,78.720,127.057,78.437C127.050,78.154,126.912,77.889,126.684,77.721C119.872,72.731,112.743,72.288,105.297,76.394C104.997,76.556,104.627,76.492,104.397,76.239C104.168,75.986,104.138,75.608,104.325,75.322C105.950,72.900,107.060,70.274,107.655,67.445C107.724,67.112,107.937,66.827,108.236,66.669C108.535,66.511,108.888,66.495,109.199,66.626C116.111,69.532,123.332,70.097,128.424,63.639C128.660,63.337,128.730,62.936,128.610,62.572C128.491,62.207,128.197,61.928,127.829,61.828C122.931,60.521,118.034,60.398,113.136,61.459C112.770,61.536,112.442,61.697,112.152,61.943L109.543,64.181C109.360,64.333,109.108,64.369,108.891,64.274C108.673,64.179,108.527,63.969,108.513,63.731C107.918,52.071,110.744,41.253,97.928,36.052C97.734,35.972,97.515,35.985,97.332,36.088C97.149,36.192,97.023,36.374,96.990,36.582C95.433,46.270,98.946,51.298,106.510,57.192C106.766,57.393,106.896,57.718,106.854,58.045L106.201,62.981C106.157,63.314,105.961,63.607,105.671,63.772C105.381,63.937,105.031,63.956,104.725,63.823C98.088,60.928,92.573,56.903,84.860,59.464C84.372,59.633,84.341,59.860,84.769,60.144C88.644,62.751,92.527,65.346,96.418,67.929C99.225,69.797,101.643,69.682,103.672,67.583C103.950,67.306,104.383,67.266,104.705,67.489C105.027,67.712,105.146,68.134,104.988,68.494L102.093,74.872C102.016,75.036,101.858,75.145,101.678,75.160C101.499,75.174,101.326,75.091,101.224,74.941C96.589,67.998,88.510,67.883,81.473,70.743C81.015,70.928,80.973,71.185,81.347,71.516C84.574,74.284,88.144,76.479,92.058,78.101C94.175,78.978,96.097,78.401,98.271,78.286C98.535,78.278,98.769,78.456,98.833,78.715C98.896,78.973,98.772,79.241,98.535,79.358C96.360,80.365,94.617,81.872,93.305,83.879C93.072,84.241,92.678,84.466,92.250,84.482C91.822,84.499,91.413,84.304,91.154,83.960C86.245,77.490,76.346,76.567,68.954,76.948C68.443,76.971,68.386,77.144,68.783,77.467C73.440,81.215,80.535,88.954,86.783,88.158C86.969,88.123,87.154,88.229,87.219,88.409C87.284,88.589,87.211,88.790,87.046,88.885L79.676,93.682C79.051,94.095,78.214,93.949,77.754,93.348C72.223,86.159,64.915,82.991,55.829,83.845C55.470,83.883,55.387,84.052,55.577,84.352C58.217,88.589,61.474,92.279,65.350,95.424C66.677,96.508,68.485,96.715,70.064,97.442C70.568,97.680,70.568,97.915,70.064,98.146Z" style="opacity: 1; fill: none; stroke-width: 2; stroke: rgb(212, 231, 153); stroke-opacity: 1;"/></g></g></g></g><g id="shape-5ba7bff4-fbe5-8044-8003-186c7777a117"><g class="fills" id="fills-5ba7bff4-fbe5-8044-8003-186c7777a117"><path rx="0" ry="0" d="M142.925,78.977C142.925,114.863,114.061,143.954,78.455,143.954C61.356,143.954,44.958,137.108,32.867,124.923C20.777,112.737,13.984,96.210,13.984,78.977C13.984,43.091,42.849,14.000,78.455,14.000C114.061,14.000,142.925,43.091,142.925,78.977ZZM69.357,98.272L64.231,100.659C63.857,100.836,63.552,100.751,63.315,100.405C58.776,93.939,52.715,89.599,45.132,87.385C44.713,87.269,44.518,87.431,44.549,87.869C45.167,95.419,48.954,100.482,55.912,103.058C56.061,103.110,56.156,103.257,56.142,103.415C56.129,103.573,56.010,103.702,55.855,103.727C46.914,105.434,37.885,105.980,28.769,105.365C28.342,105.334,28.139,105.534,28.162,105.964L28.277,107.787C28.313,108.407,28.845,108.881,29.467,108.848L47.478,107.740C48.214,107.697,48.860,108.228,48.966,108.963C50.202,117.544,58.681,125.755,67.824,121.603C68.190,121.434,68.316,121.161,68.202,120.784C65.970,112.942,60.764,109.701,53.383,106.622C52.963,106.445,52.975,106.299,53.417,106.184L63.876,103.473C63.990,103.443,64.111,103.461,64.212,103.524C64.314,103.587,64.386,103.689,64.414,103.808C66.417,112.377,74.793,121.061,84.256,115.975C86.034,115.022,86.118,113.934,84.508,112.711C79.839,109.159,74.061,102.205,67.881,102.504C67.632,102.546,67.396,102.375,67.355,102.124C67.314,101.872,67.483,101.635,67.732,101.593C71.287,100.563,74.537,98.952,77.482,96.761C77.765,96.549,78.139,96.508,78.463,96.653C78.786,96.799,79.010,97.108,79.050,97.465C79.988,106.218,92.507,108.594,99.235,107.544C99.592,107.487,99.892,107.242,100.019,106.901C100.147,106.560,100.084,106.176,99.853,105.895C94.635,99.621,91.019,95.804,82.448,95.089C82.282,95.075,82.142,94.959,82.096,94.797C82.050,94.636,82.108,94.462,82.242,94.362L90.882,87.858C91.044,87.736,91.251,87.693,91.446,87.739C91.641,87.786,91.804,87.919,91.889,88.100C96.340,97.338,109.145,102.239,115.645,91.052C115.912,90.591,115.778,90.345,115.244,90.314C110.152,90.037,107.257,90.787,102.897,87.742C100.368,85.978,98.663,85.228,96.031,84.571C95.803,84.518,95.632,84.328,95.601,84.094C95.571,83.860,95.687,83.632,95.894,83.521C97.946,82.352,99.575,80.738,100.780,78.677C100.984,78.331,101.323,78.086,101.715,78.003C102.106,77.919,102.514,78.005,102.840,78.239C110.358,83.660,118.242,85.493,126.012,79.288C126.232,79.115,126.357,78.847,126.350,78.564C126.343,78.281,126.206,78.015,125.978,77.847C119.165,72.857,112.036,72.415,104.591,76.521C104.291,76.682,103.920,76.619,103.691,76.365C103.461,76.112,103.431,75.735,103.618,75.448C105.243,73.026,106.353,70.400,106.948,67.571C107.017,67.238,107.230,66.954,107.529,66.795C107.828,66.637,108.181,66.621,108.493,66.752C115.404,69.658,122.625,70.224,127.717,63.765C127.953,63.464,128.024,63.063,127.904,62.698C127.784,62.333,127.490,62.054,127.122,61.954C122.224,60.647,117.327,60.524,112.429,61.585C112.063,61.662,111.735,61.824,111.445,62.070L108.836,64.307C108.654,64.460,108.402,64.496,108.184,64.401C107.967,64.306,107.821,64.096,107.806,63.857C107.211,52.197,110.038,41.379,97.221,36.178C97.027,36.098,96.808,36.111,96.625,36.215C96.442,36.318,96.316,36.500,96.283,36.709C94.727,46.396,98.240,51.425,105.804,57.318C106.059,57.519,106.190,57.844,106.147,58.172L105.495,63.108C105.450,63.440,105.254,63.733,104.964,63.898C104.674,64.063,104.324,64.082,104.018,63.950C97.381,61.055,91.866,57.030,84.153,59.590C83.665,59.759,83.635,59.986,84.062,60.271C87.937,62.877,91.820,65.472,95.711,68.055C98.518,69.924,100.936,69.808,102.966,67.709C103.243,67.432,103.676,67.393,103.998,67.616C104.320,67.838,104.439,68.260,104.282,68.620L101.387,74.998C101.309,75.162,101.151,75.272,100.972,75.286C100.792,75.300,100.619,75.217,100.517,75.067C95.882,68.125,87.804,68.009,80.766,70.869C80.308,71.054,80.266,71.311,80.640,71.642C83.867,74.410,87.437,76.605,91.351,78.227C93.468,79.104,95.390,78.527,97.565,78.412C97.829,78.404,98.062,78.583,98.126,78.841C98.189,79.100,98.065,79.368,97.828,79.485C95.654,80.492,93.910,81.999,92.598,84.006C92.365,84.368,91.972,84.593,91.543,84.609C91.115,84.625,90.706,84.430,90.447,84.086C85.538,77.616,75.640,76.694,68.247,77.074C67.736,77.097,67.679,77.270,68.076,77.593C72.733,81.341,79.828,89.080,86.076,88.284C86.263,88.249,86.447,88.355,86.512,88.535C86.578,88.715,86.504,88.916,86.339,89.011L78.970,93.809C78.344,94.221,77.507,94.075,77.047,93.474C71.516,86.285,64.208,83.117,55.122,83.971C54.764,84.009,54.680,84.178,54.870,84.478C57.510,88.715,60.767,92.405,64.643,95.550C65.970,96.634,67.778,96.842,69.357,97.568C69.861,97.807,69.861,98.041,69.357,98.272ZZ" style="opacity: 1; fill: rgb(168, 206, 57);"/></g></g><g id="shape-5ba7bff4-fbe5-8044-8003-186c7777a118"><g class="fills" id="fills-5ba7bff4-fbe5-8044-8003-186c7777a118"><path rx="0" ry="0" d="M70.064,97.442C68.485,96.715,66.677,96.508,65.350,95.424C61.474,92.279,58.217,88.589,55.577,84.352C55.387,84.052,55.470,83.883,55.829,83.845C64.915,82.991,72.223,86.159,77.754,93.348C78.214,93.949,79.051,94.095,79.676,93.682L87.046,88.885C87.211,88.790,87.284,88.589,87.219,88.409C87.154,88.229,86.969,88.123,86.783,88.158C80.535,88.954,73.440,81.215,68.783,77.467C68.386,77.144,68.443,76.971,68.954,76.948C76.346,76.567,86.245,77.490,91.154,83.960C91.413,84.304,91.822,84.499,92.250,84.482C92.678,84.466,93.072,84.241,93.305,83.879C94.617,81.872,96.360,80.365,98.535,79.358C98.772,79.241,98.896,78.973,98.833,78.715C98.769,78.456,98.535,78.278,98.271,78.286C96.097,78.401,94.175,78.978,92.058,78.101C88.144,76.479,84.574,74.284,81.347,71.516C80.973,71.185,81.015,70.928,81.473,70.743C88.510,67.883,96.589,67.998,101.224,74.941C101.326,75.091,101.499,75.174,101.678,75.160C101.858,75.145,102.016,75.036,102.093,74.872L104.988,68.494C105.146,68.134,105.027,67.712,104.705,67.489C104.383,67.266,103.950,67.306,103.672,67.583C101.643,69.682,99.225,69.797,96.418,67.929C92.527,65.346,88.644,62.751,84.769,60.144C84.341,59.860,84.372,59.633,84.860,59.464C92.573,56.903,98.088,60.928,104.725,63.823C105.031,63.956,105.381,63.937,105.671,63.772C105.961,63.607,106.157,63.314,106.201,62.981L106.854,58.045C106.896,57.718,106.766,57.393,106.510,57.192C98.947,51.298,95.433,46.270,96.990,36.582C97.023,36.374,97.149,36.192,97.332,36.088C97.515,35.985,97.734,35.972,97.928,36.052C110.744,41.253,107.918,52.071,108.513,63.731C108.527,63.969,108.673,64.179,108.891,64.274C109.108,64.369,109.360,64.333,109.543,64.181L112.152,61.943C112.442,61.697,112.770,61.536,113.136,61.459C118.034,60.398,122.931,60.521,127.829,61.828C128.197,61.928,128.491,62.207,128.610,62.572C128.730,62.936,128.660,63.337,128.424,63.639C123.332,70.097,116.111,69.532,109.199,66.626C108.888,66.495,108.535,66.511,108.236,66.669C107.937,66.827,107.724,67.112,107.655,67.445C107.060,70.274,105.950,72.900,104.325,75.322C104.138,75.608,104.168,75.986,104.397,76.239C104.627,76.492,104.997,76.556,105.297,76.394C112.743,72.289,119.872,72.731,126.685,77.721C126.912,77.889,127.050,78.154,127.057,78.437C127.063,78.720,126.938,78.989,126.719,79.162C118.949,85.367,111.065,83.533,103.547,78.113C103.221,77.879,102.813,77.793,102.421,77.876C102.030,77.960,101.691,78.204,101.487,78.551C100.281,80.612,98.653,82.226,96.601,83.395C96.394,83.506,96.278,83.734,96.308,83.968C96.339,84.201,96.510,84.391,96.738,84.444C99.370,85.102,101.075,85.851,103.604,87.616C107.964,90.661,110.859,89.911,115.951,90.188C116.485,90.219,116.618,90.465,116.351,90.926C109.852,102.113,97.047,97.211,92.596,87.973C92.510,87.792,92.348,87.660,92.153,87.613C91.958,87.566,91.751,87.610,91.589,87.731L82.949,94.236C82.815,94.336,82.757,94.509,82.802,94.671C82.848,94.833,82.989,94.949,83.155,94.962C91.726,95.677,95.342,99.495,100.560,105.769C100.790,106.050,100.854,106.433,100.726,106.774C100.598,107.115,100.299,107.361,99.942,107.418C93.214,108.468,80.695,106.092,79.756,97.338C79.717,96.982,79.493,96.672,79.169,96.527C78.846,96.382,78.472,96.423,78.189,96.635C75.244,98.826,71.994,100.437,68.439,101.467C68.190,101.509,68.021,101.746,68.062,101.998C68.103,102.249,68.339,102.419,68.588,102.378C74.767,102.078,80.546,109.033,85.215,112.585C86.824,113.807,86.741,114.895,84.963,115.849C75.500,120.935,67.123,112.250,65.121,103.681C65.093,103.563,65.020,103.461,64.919,103.398C64.818,103.335,64.697,103.316,64.583,103.347L54.124,106.057C53.682,106.173,53.670,106.319,54.090,106.495C61.470,109.575,66.677,112.816,68.908,120.658C69.023,121.035,68.897,121.308,68.531,121.477C59.388,125.629,50.908,117.417,49.673,108.837C49.567,108.102,48.921,107.571,48.185,107.614L30.174,108.721C29.552,108.755,29.020,108.281,28.984,107.660L28.869,105.838C28.846,105.408,29.048,105.208,29.476,105.238C38.592,105.853,47.621,105.308,56.561,103.601C56.717,103.576,56.836,103.447,56.849,103.289C56.863,103.131,56.768,102.983,56.619,102.932C49.661,100.356,45.874,95.293,45.256,87.743C45.225,87.305,45.420,87.143,45.839,87.258C53.422,89.473,59.483,93.813,64.022,100.279C64.259,100.625,64.564,100.710,64.938,100.533L70.064,98.146C70.568,97.915,70.568,97.680,70.064,97.442ZZ" style="opacity: 1; fill: rgb(255, 255, 249);"/></g></g></g></svg>